<svg id="master-logo" xmlns="http://www.w3.org/2000/svg" viewBox="0 0 2000 1200">
  <defs>
    <style>
      .cls-1 {
        fill: #a5a5a5;
      }

      .cls-2 {
        fill: #8f3d58;
      }

      .cls-3 {
        fill: #2b6597;
        stroke: #000;
        stroke-miterlimit: 10;
        stroke-width: 2px;
      }

      .cls-4 {
        fill: #5a6722;
      }
    </style>
  </defs>
  <g id="context-light">
    <g id="main-red-2" data-name="main-red">
      <g id="Layer_41_copy" data-name="Layer 41 copy">
        <rect class="cls-1" width="2000" height="1200"/>
      </g>
      <g id="clue-type-4" data-name="clue-type">
        <g>
          <path class="cls-2" d="M758.66,636V414.14H665.2V330.65H865.83v309c0,36.14,24.92,46.11,46.73,46.11,13.08,0,26.79-2.49,44.86-8.72l23.05,78.5c-33.65,10-56.08,16.2-96.57,16.2C801,771.78,758.66,717,758.66,636Z"/>
          <path class="cls-2" d="M986.69,644.68V452.77h107.17V631c0,34.89,7.47,49.84,35.51,49.84,18.07,0,30.53-5,46.73-27.41V452.77h107.17V764.3H1196l-7.48-41.12h-2.49c-26.17,29.91-57.32,48.6-100.94,48.6C1015.35,771.78,986.69,721.94,986.69,644.68Z"/>
          <path class="cls-2" d="M1303.82,608.54c0-102.18,79.75-163.24,163.24-163.24,98.45,0,148.29,67.29,148.29,150.78,0,18.69-3.11,37.38-4.36,44.86H1384.82V571.16h152l-15,18.69c0-41.12-16.2-63.56-51.09-63.56-41.12,0-63.55,26.17-63.55,82.25,0,58.57,28.66,82.24,86,82.24,24.92,0,47.35-6.23,74.77-18.69l34.89,63.55c-37.38,23.68-86,36.14-124.61,36.14C1379.83,771.78,1303.82,712,1303.82,608.54Z"/>
        </g>
        <path class="cls-2" d="M419.72,608.54c0-103.43,86-163.24,182.55-163.24,48.6,0,91.6,16.2,117.76,41.12l-48.6,66c-23-15.57-43-21.18-62.93-21.18-46.72,0-79.12,29.91-79.12,77.26s31.77,77.26,75.39,77.26c30.53,0,55.45-13.09,76.63-26.17l42.37,67.29c-38.63,31.78-88.47,44.86-129.6,44.86C495.73,771.78,419.72,712,419.72,608.54Z"/>
      </g>
      <g id="brackets-4" data-name="brackets">
        <path class="cls-3" d="M1614.19,815.45H1642c55.6,0,68.14-14.18,68.14-49.61,0-33.26-3.27-61.61-3.27-98.68,0-35.43,11.45-52.88,49.07-59.42v-2.18c-37.62-6.54-49.07-24-49.07-59.43,0-33.8,3.27-67.6,3.27-98.67,0-35.44-12.54-49.61-68.14-49.61h-27.81V372.23h33.26c68.69,0,100.31,16.35,100.31,72.5,0,37.62-4.91,70.88-4.91,105.22,0,21.26,14.72,42,79.05,42.52v28.35c-64.33.55-79.05,21.26-79.05,42.53,0,36.52,4.91,65.42,4.91,105.21,0,56.15-31.62,72.51-100.31,72.51h-33.26Z"/>
        <path class="cls-3" d="M297.37,768.56c0-39.8,5.45-68.69,5.45-105.22,0-21.26-14.72-42-79-42.52V592.47c64.33-.54,79-21.26,79-42.52,0-34.34-5.45-67.6-5.45-105.22,0-56.15,32.71-72.5,100.85-72.5H432v25.62H403.67c-55.6,0-67.6,14.17-67.6,49.61,0,31.07,3.27,64.87,3.27,98.67,0,35.44-12,52.89-49.61,59.43v2.18c37.62,6.54,49.61,24,49.61,59.42,0,37.07-3.27,65.42-3.27,98.68,0,35.43,12,49.61,67.6,49.61H432v25.62h-33.8C330.08,841.07,297.37,824.71,297.37,768.56Z"/>
      </g>
      <g id="research">
        <g>
          <path class="cls-4" d="M796,833.37c0-7,5.05-11.92,11.35-11.92s11.36,4.91,11.36,11.92-5,11.91-11.36,11.91S796,840.52,796,833.37Zm0,50.18c0-7,5.05-11.91,11.35-11.91s11.36,4.9,11.36,11.91-5,11.92-11.36,11.92S796,890.7,796,883.55Z"/>
          <path class="cls-4" d="M863.32,801.83h28.74c18.64,0,32.24,6.72,32.24,25.93,0,18.36-13.6,27.2-32.24,27.2H875.23v38.83H863.32Zm27,43.59c14.3,0,22.15-5.88,22.15-17.66,0-12.06-7.85-16.4-22.15-16.4H875.23v34.06Zm8.55.14,28,48.23H913.64l-24-42.06Z"/>
          <path class="cls-4" d="M949.53,801.83h56.92v9.95H961.31v28.74h38.13v10H961.31v33.36h46.54v10H949.53Z"/>
          <path class="cls-4" d="M1027.05,881.87l7-8.13A38.67,38.67,0,0,0,1061,885.09c12.61,0,19.9-6,19.9-14.43,0-9.82-7.14-12.62-16.4-16.55l-13.31-5.88c-9.12-3.65-19.77-10.1-19.77-23.69,0-14,12.62-24.4,30.14-24.4a40.13,40.13,0,0,1,28.32,11.36l-6.17,7.57a32.31,32.31,0,0,0-22.57-8.55c-10.66,0-17.8,5-17.8,13.31,0,8.84,8.55,12.06,16.4,15.14l12.89,5.75c11.36,4.49,20.33,10.94,20.33,24.53,0,14.58-12.34,26.22-32.52,26.22A46.78,46.78,0,0,1,1027.05,881.87Z"/>
          <path class="cls-4" d="M1117.75,801.83h56.92v9.95h-45.14v28.74h38.13v10h-38.13v33.36h46.54v10h-58.32Z"/>
          <path class="cls-4" d="M1221.21,801.83h13.46l31,92H1253l-15.84-51.31c-3.22-10.23-6.31-20.33-9.11-31h-.56c-2.94,10.65-5.89,20.75-9.11,31l-16.12,51.31h-12.06Zm-14.58,54.53h42.2v9.53h-42.2Z"/>
          <path class="cls-4" d="M1283.87,801.83h28.74c18.64,0,32.24,6.72,32.24,25.93,0,18.36-13.6,27.2-32.24,27.2h-16.82v38.83h-11.92Zm27.06,43.59c14.3,0,22.15-5.88,22.15-17.66,0-12.06-7.85-16.4-22.15-16.4h-15.14v34.06Zm8.55.14,28,48.23H1334.2l-24-42.06Z"/>
          <path class="cls-4" d="M1363.22,847.81c0-29.58,17.24-47.67,41.21-47.67a34.46,34.46,0,0,1,25.24,11.22l-6.73,7.43c-4.77-5-10.8-8.27-18.51-8.27-17.52,0-29,14.16-29,37,0,23.13,11.5,37.56,29,37.56,8.41,0,14.86-3.64,20.61-10.09l6.73,7.15c-7.15,8.41-16.26,13.32-28.46,13.32C1380.6,895.47,1363.22,877.8,1363.22,847.81Z"/>
          <path class="cls-4" d="M1449.29,801.83h11.92v38.41h38.13V801.83h11.91v92h-11.91V850.61h-38.13v43.18h-11.92Z"/>
          <path class="cls-4" d="M1549.8,916.35c11.92-5.32,17.81-12.89,17.67-24.53l-2.53-12.89,7.85,11.07a9.88,9.88,0,0,1-7.85,3.22c-6,0-10.93-3.5-10.93-10.51s5.19-10.65,11.21-10.65c8.28,0,12.62,6.87,12.62,17.94,0,16.4-9.25,27.9-24.67,33.64Zm3.23-83c0-7,5-11.92,11.35-11.92s11.36,4.91,11.36,11.92-5,11.91-11.36,11.91S1553,840.52,1553,833.37Z"/>
        </g>
      </g>
      <g id="interactive-data">
        <path class="cls-4" d="M953.84,388.65a52,52,0,0,1,.4-5.68l3.37-27.33H947.44l.74-6.52H962.7l-4.12,34.69a23.07,23.07,0,0,0-.23,3.26c0,5.36,1.72,7.57,4.23,7.57,1.72,0,3.32-1.05,5.32-2.63l1,6.1c-2.35,2-4.58,3.36-7.6,3.36C956.87,401.47,953.84,397.06,953.84,388.65Zm3.94-56c0-3.89,1.83-7.25,4-7.25S965,327.46,965,331c0,4.1-1.83,7.25-4,7.25C959.21,338.29,957.78,336.29,957.78,332.61Z"/>
        <path class="cls-4" d="M983.33,349.12H987l-.74,10.41h.23c3.37-6.1,7.49-11.67,12.46-11.67s7.14,5,7.14,12.72a82.92,82.92,0,0,1-.51,8.41l-3.43,31.22h-4.4l3.31-30.38a64.36,64.36,0,0,0,.52-7.15c0-5.05-1.55-7.78-4.4-7.78-3.72,0-7.55,4.52-11.32,12.3l-3.6,33h-4.4Z"/>
        <path class="cls-4" d="M1019.16,386.86a55.37,55.37,0,0,1,.45-6.62l2.75-24.6h-8.06l.63-6,8.34-.52,2.4-16.4h3.66l-1.83,16.4h13.66l-.74,6.52H1026.7l-2.8,24.81a36.13,36.13,0,0,0-.29,4.62c0,6.52,2,9.57,5.15,9.57,2.74,0,5.2-1.58,7.2-3.68l1.43,5.89a13.14,13.14,0,0,1-9.77,4.62C1021.79,401.47,1019.16,395.59,1019.16,386.86Z"/>
        <path class="cls-4" d="M1048,379.4c0-18.4,7.43-31.54,15.83-31.54,6.8,0,10.57,8.3,10.57,19.66a59.42,59.42,0,0,1-.74,9.14h-22.29l.57-6.31h19.83l-1.83,1.58a31.61,31.61,0,0,0,.35-4.73c0-8-2.58-12.93-6.69-12.93-5.37,0-11.26,9.88-11.26,24.71,0,10.3,3.32,16.08,8.35,16.08,3.65,0,6.91-2.84,9.48-6.62l1.66,5.46c-2.8,4.1-7.14,7.57-12,7.57C1052.59,401.47,1048,393.69,1048,379.4Z"/>
        <path class="cls-4" d="M1089.68,349l3.65.11-1.2,14.61h.23c3.14-8.72,7.6-15.87,12.46-15.87a6.8,6.8,0,0,1,5.6,2.62l-1.77,6.94a5.8,5.8,0,0,0-4.63-2.2c-4.29,0-8.74,7.46-12.52,18.5l-2.91,26.49h-4.4Z"/>
        <path class="cls-4" d="M1115.91,381.92c0-18.29,6.8-34.06,15.25-34.06,3.95,0,6.92,3.05,8.46,7.67h.23l1.14-6.41h3.6l-5.6,51.09h-3.6l.4-7.78h-.23c-2.91,5.47-6.57,9-10.17,9C1119.68,401.47,1115.91,394.64,1115.91,381.92Zm20.34,2.84,2.57-22.61c-1.89-5.36-4.51-7.46-7.09-7.46-6.34,0-11.31,12.3-11.31,26,0,9.57,2.51,14,6.34,14C1129.79,394.64,1133.22,391.28,1136.25,384.76Z"/>
        <path class="cls-4" d="M1151.05,379c0-18.61,8.06-31.12,16.74-31.12,4.86,0,8.46,4.31,10.46,9.14l-2.86,4.63c-2-4.63-4.57-6.94-8.17-6.94-5.71,0-11.71,10.3-11.71,23.34,0,11.14,3.77,16.61,8.91,16.61,3.26,0,6.29-2.84,8.86-7l1.77,5.57c-2.91,4.94-7,8.3-11.2,8.3C1156.59,401.47,1151.05,393.9,1151.05,379Z"/>
        <path class="cls-4" d="M1190.6,386.86a55.37,55.37,0,0,1,.45-6.62l2.75-24.6h-8.06l.63-6,8.34-.52,2.4-16.4h3.66l-1.83,16.4h13.66l-.75,6.52h-13.71l-2.8,24.81a36.13,36.13,0,0,0-.29,4.62c0,6.52,2,9.57,5.15,9.57,2.74,0,5.2-1.58,7.2-3.68l1.43,5.89a13.16,13.16,0,0,1-9.78,4.62C1193.22,401.47,1190.6,395.59,1190.6,386.86Z"/>
        <path class="cls-4" d="M1228.14,388.65a52,52,0,0,1,.4-5.68l3.37-27.33h-10.17l.74-6.52H1237l-4.12,34.69a23,23,0,0,0-.22,3.26c0,5.36,1.71,7.57,4.22,7.57,1.72,0,3.32-1.05,5.32-2.63l1,6.1c-2.35,2-4.57,3.36-7.6,3.36C1231.17,401.47,1228.14,397.06,1228.14,388.65Zm3.94-56c0-3.89,1.83-7.25,4-7.25s3.31,2.1,3.31,5.68c0,4.1-1.83,7.25-4,7.25C1233.51,338.29,1232.08,336.29,1232.08,332.61Z"/>
        <path class="cls-4" d="M1255.06,349.12h4.34l3.49,29.65c.57,5,1.08,10.19,1.6,15h.22c1.32-4.73,2.92-9.88,4.63-15.14l9.49-29.54h4.51l-16.8,51.09h-5.2Z"/>
        <path class="cls-4" d="M1288,379.4c0-18.4,7.43-31.54,15.83-31.54,6.8,0,10.57,8.3,10.57,19.66a58.16,58.16,0,0,1-.74,9.14h-22.29l.58-6.31h19.83l-1.83,1.58a33,33,0,0,0,.34-4.73c0-8-2.57-12.93-6.69-12.93-5.37,0-11.25,9.88-11.25,24.71,0,10.3,3.31,16.08,8.34,16.08,3.66,0,6.91-2.84,9.48-6.62l1.66,5.46c-2.8,4.1-7.14,7.57-12,7.57C1292.6,401.47,1288,393.69,1288,379.4Z"/>
        <path class="cls-4" d="M1363.8,321.36h4V426.5h-4Z"/>
        <path class="cls-4" d="M1411.64,381.92c0-18.29,6.8-34.06,15.25-34.06,3.95,0,6.75,2.94,8.35,7.46h.17l1-10,2.17-20h4.4l-8.23,74.85h-3.6l.4-7.78h-.23c-2.91,5.47-6.57,9-10.17,9C1415.41,401.47,1411.64,394.64,1411.64,381.92Zm20.34,2.84,2.57-22.61c-1.88-5.36-4.51-7.46-7.08-7.46-6.35,0-11.32,12.3-11.32,26,0,9.57,2.52,14,6.34,14C1425.52,394.64,1429,391.28,1432,384.76Z"/>
        <path class="cls-4" d="M1445.92,381.92c0-18.29,6.8-34.06,15.26-34.06,4,0,6.92,3.05,8.46,7.67h.23l1.14-6.41h3.6l-5.6,51.09h-3.6l.4-7.78h-.23c-2.91,5.47-6.57,9-10.17,9C1449.7,401.47,1445.92,394.64,1445.92,381.92Zm20.35,2.84,2.57-22.61c-1.89-5.36-4.51-7.46-7.09-7.46-6.34,0-11.31,12.3-11.31,26,0,9.57,2.51,14,6.34,14C1459.81,394.64,1463.24,391.28,1466.27,384.76Z"/>
        <path class="cls-4" d="M1486.33,386.86a55.37,55.37,0,0,1,.45-6.62l2.75-24.6h-8.06l.63-6,8.34-.52,2.4-16.4h3.66l-1.83,16.4h13.66l-.75,6.52h-13.71l-2.8,24.81a36.13,36.13,0,0,0-.29,4.62c0,6.52,2,9.57,5.15,9.57,2.74,0,5.2-1.58,7.2-3.68l1.43,5.89a13.14,13.14,0,0,1-9.78,4.62C1489,401.47,1486.33,395.59,1486.33,386.86Z"/>
        <path class="cls-4" d="M1514.5,381.92c0-18.29,6.8-34.06,15.26-34.06,3.94,0,6.91,3.05,8.45,7.67h.23l1.15-6.41h3.6l-5.6,51.09H1534l.4-7.78h-.23c-2.92,5.47-6.57,9-10.17,9C1518.27,401.47,1514.5,394.64,1514.5,381.92Zm20.34,2.84,2.57-22.61c-1.88-5.36-4.51-7.46-7.08-7.46-6.34,0-11.32,12.3-11.32,26,0,9.57,2.52,14,6.35,14C1528.39,394.64,1531.81,391.28,1534.84,384.76Z"/>
      </g>
    </g>
  </g>
</svg>
