<svg id="master-logo" xmlns="http://www.w3.org/2000/svg" viewBox="0 0 4000 2400">
  <defs>
    <style>
      .cls-1 {
        fill: #404040;
      }

      .cls-2, .cls-6 {
        fill: #2c689c;
      }

      .cls-3, .cls-5 {
        fill: #b24745;
      }

      .cls-12, .cls-3, .cls-6, .cls-9 {
        stroke: #000;
        stroke-miterlimit: 10;
        stroke-width: 2px;
      }

      .cls-4 {
        fill: #917543;
      }

      .cls-7 {
        fill: #a5a5a5;
      }

      .cls-12, .cls-8 {
        fill: #2b6597;
      }

      .cls-11, .cls-9 {
        fill: #8f3d58;
      }

      .cls-10 {
        fill: #5a6722;
      }
    </style>
  </defs>
  <g id="context-dark">
    <g id="main-blue">
      <g id="Layer_41_copy_3" data-name="Layer 41 copy 3">
        <rect class="cls-1" y="1200" width="2000" height="1200"/>
      </g>
      <g id="clue-type">
        <g>
          <path class="cls-2" d="M773.86,1808.82V1587H680.4v-83.49H881v309c0,36.14,24.92,46.1,46.73,46.1,13.08,0,26.79-2.49,44.86-8.72l23,78.51c-33.64,10-56.07,16.2-96.57,16.2C816.23,1944.65,773.86,1889.82,773.86,1808.82Z"/>
          <path class="cls-2" d="M1001.89,1817.54v-191.9h107.17v178.19c0,34.9,7.48,49.85,35.52,49.85,18.06,0,30.53-5,46.73-27.42V1625.64h107.16v311.53h-87.23l-7.47-41.12h-2.5c-26.16,29.9-57.32,48.6-100.93,48.6C1030.56,1944.65,1001.89,1894.8,1001.89,1817.54Z"/>
          <path class="cls-2" d="M1319,1781.4c0-102.18,79.76-163.24,163.25-163.24,98.44,0,148.28,67.29,148.28,150.78,0,18.69-3.11,37.39-4.36,44.86H1400V1744h152l-15,18.69c0-41.12-16.2-63.55-51.1-63.55-41.12,0-63.55,26.17-63.55,82.24,0,58.57,28.66,82.25,86,82.25,24.93,0,47.36-6.23,74.77-18.69l34.89,63.55c-37.38,23.68-86,36.14-124.61,36.14C1395,1944.65,1319,1884.83,1319,1781.4Z"/>
        </g>
        <path class="cls-2" d="M434.92,1781.4c0-103.42,86-163.24,182.56-163.24,48.6,0,91.59,16.2,117.76,41.12l-48.6,66c-23.06-15.58-43-21.19-62.93-21.19-46.73,0-79.13,29.91-79.13,77.26s31.78,77.26,75.39,77.26c30.53,0,55.45-13.08,76.64-26.16L739,1899.79c-38.63,31.77-88.48,44.86-129.6,44.86C510.93,1944.65,434.92,1884.83,434.92,1781.4Z"/>
      </g>
      <g id="brackets">
        <path class="cls-3" d="M1629.4,1988.31h27.8c55.61,0,68.15-14.17,68.15-49.61,0-33.25-3.27-61.6-3.27-98.67,0-35.44,11.44-52.88,49.06-59.43v-2.18c-37.62-6.54-49.06-24-49.06-59.42,0-33.8,3.27-67.6,3.27-98.68,0-35.43-12.54-49.61-68.15-49.61h-27.8v-25.62h33.25c68.69,0,100.31,16.36,100.31,72.51,0,37.61-4.9,70.87-4.9,105.22,0,21.26,14.72,42,79,42.52v28.35c-64.33.54-79,21.26-79,42.52,0,36.53,4.9,65.42,4.9,105.22,0,56.15-31.62,72.5-100.31,72.5H1629.4Z"/>
        <path class="cls-3" d="M312.57,1941.43c0-39.8,5.45-68.69,5.45-105.22,0-21.26-14.72-42-79-42.52v-28.35c64.33-.55,79-21.26,79-42.52,0-34.35-5.45-67.61-5.45-105.22,0-56.15,32.71-72.51,100.86-72.51h33.8v25.62H418.88c-55.61,0-67.6,14.18-67.6,49.61,0,31.08,3.27,64.88,3.27,98.68,0,35.44-12,52.88-49.61,59.42v2.18c37.61,6.54,49.61,24,49.61,59.43,0,37.07-3.27,65.42-3.27,98.67,0,35.44,12,49.61,67.6,49.61h28.35v25.62h-33.8C345.28,2013.93,312.57,1997.58,312.57,1941.43Z"/>
      </g>
      <g id="research">
        <g>
          <path class="cls-4" d="M811.23,2006.23c0-7,5-11.91,11.36-11.91s11.35,4.9,11.35,11.91-5,11.92-11.35,11.92S811.23,2013.38,811.23,2006.23Zm0,50.19c0-7,5-11.92,11.36-11.92s11.35,4.91,11.35,11.92-5,11.91-11.35,11.91S811.23,2063.57,811.23,2056.42Z"/>
          <path class="cls-4" d="M878.52,1974.69h28.74c18.64,0,32.24,6.73,32.24,25.93,0,18.37-13.6,27.2-32.24,27.2H890.44v38.83H878.52Zm27.06,43.6c14.3,0,22.15-5.89,22.15-17.67,0-12-7.85-16.4-22.15-16.4H890.44v34.07Zm8.55.14,28,48.22H928.85l-24-42.05Z"/>
          <path class="cls-4" d="M964.74,1974.69h56.91v10H976.51v28.74h38.13v9.95H976.51v33.37h46.54v10H964.74Z"/>
          <path class="cls-4" d="M1042.26,2054.73l7-8.13a38.67,38.67,0,0,0,26.91,11.36c12.62,0,19.91-6,19.91-14.44,0-9.81-7.15-12.62-16.4-16.54l-13.32-5.89c-9.11-3.64-19.77-10.09-19.77-23.69,0-14,12.62-24.39,30.14-24.39a40.11,40.11,0,0,1,28.32,11.35l-6.17,7.57a32.35,32.35,0,0,0-22.57-8.55c-10.65,0-17.8,5-17.8,13.32,0,8.83,8.55,12,16.4,15.14l12.9,5.75c11.35,4.48,20.32,10.93,20.32,24.53,0,14.58-12.33,26.21-32.52,26.21A46.69,46.69,0,0,1,1042.26,2054.73Z"/>
          <path class="cls-4" d="M1133,1974.69h56.91v10h-45.14v28.74h38.13v9.95h-38.13v33.37h46.54v10H1133Z"/>
          <path class="cls-4" d="M1236.41,1974.69h13.46l31,92h-12.61l-15.85-51.31c-3.22-10.23-6.3-20.32-9.11-31h-.56c-2.94,10.66-5.89,20.75-9.11,31l-16.12,51.31h-12.06Zm-14.58,54.53H1264v9.53h-42.2Z"/>
          <path class="cls-4" d="M1299.08,1974.69h28.73c18.65,0,32.25,6.73,32.25,25.93,0,18.37-13.6,27.2-32.25,27.2H1311v38.83h-11.91Zm27.05,43.6c14.3,0,22.15-5.89,22.15-17.67,0-12-7.85-16.4-22.15-16.4H1311v34.07Zm8.55.14,28,48.22H1349.4l-24-42.05Z"/>
          <path class="cls-4" d="M1378.42,2020.67c0-29.58,17.24-47.66,41.22-47.66a34.45,34.45,0,0,1,25.23,11.21l-6.73,7.43c-4.77-5-10.79-8.27-18.5-8.27-17.53,0-29,14.16-29,37,0,23.13,11.49,37.57,29,37.57,8.41,0,14.85-3.65,20.6-10.09L1447,2055c-7.15,8.42-16.26,13.32-28.46,13.32C1395.8,2068.33,1378.42,2050.67,1378.42,2020.67Z"/>
          <path class="cls-4" d="M1464.5,1974.69h11.91v38.41h38.13v-38.41h11.92v92h-11.92v-43.18h-38.13v43.18H1464.5Z"/>
          <path class="cls-4" d="M1565,2089.22c11.91-5.33,17.8-12.9,17.66-24.53l-2.52-12.9,7.85,11.08a9.91,9.91,0,0,1-7.85,3.22c-6,0-10.94-3.51-10.94-10.51s5.19-10.66,11.22-10.66c8.27,0,12.61,6.87,12.61,17.95,0,16.4-9.25,27.89-24.67,33.64Zm3.22-83c0-7,5-11.91,11.36-11.91s11.35,4.9,11.35,11.91-5,11.92-11.35,11.92S1568.23,2013.38,1568.23,2006.23Z"/>
        </g>
      </g>
      <g id="interactive-data">
        <path class="cls-4" d="M969,1561.51a52,52,0,0,1,.4-5.67l3.37-27.34H962.64l.75-6.52H977.9l-4.11,34.7a21.49,21.49,0,0,0-.23,3.26c0,5.36,1.71,7.57,4.23,7.57,1.71,0,3.31-1.06,5.31-2.63l1,6.09c-2.34,2-4.57,3.37-7.6,3.37C972.07,1574.34,969,1569.92,969,1561.51Zm4-56c0-3.89,1.82-7.26,3.94-7.26s3.31,2.11,3.31,5.68c0,4.1-1.83,7.25-4,7.25C974.41,1511.15,973,1509.16,973,1505.48Z"/>
        <path class="cls-4" d="M998.53,1522h3.66l-.75,10.41h.23c3.37-6.1,7.49-11.67,12.46-11.67s7.14,5,7.14,12.72a82.74,82.74,0,0,1-.51,8.41l-3.43,31.23h-4.4l3.32-30.39a66.37,66.37,0,0,0,.51-7.15c0-5-1.54-7.77-4.4-7.77-3.71,0-7.54,4.52-11.32,12.3l-3.6,33H993Z"/>
        <path class="cls-4" d="M1034.36,1559.73a53.6,53.6,0,0,1,.46-6.63l2.74-24.6h-8.06l.63-6,8.35-.53,2.4-16.4h3.65l-1.83,16.4h13.66l-.74,6.52H1041.9l-2.8,24.81a38,38,0,0,0-.28,4.63c0,6.52,2,9.57,5.14,9.57,2.74,0,5.2-1.58,7.2-3.68l1.43,5.88a13.11,13.11,0,0,1-9.77,4.63C1037,1574.34,1034.36,1568.45,1034.36,1559.73Z"/>
        <path class="cls-4" d="M1063.16,1552.26c0-18.4,7.43-31.54,15.83-31.54,6.8,0,10.57,8.31,10.57,19.66a58.31,58.31,0,0,1-.74,9.15h-22.29l.58-6.31h19.82l-1.82,1.58a33.12,33.12,0,0,0,.34-4.73c0-8-2.57-12.94-6.69-12.94-5.37,0-11.25,9.89-11.25,24.71,0,10.3,3.31,16.09,8.34,16.09,3.66,0,6.91-2.84,9.48-6.63l1.66,5.47c-2.8,4.1-7.14,7.57-12,7.57C1067.79,1574.34,1063.16,1566.56,1063.16,1552.26Z"/>
        <path class="cls-4" d="M1104.88,1521.88l3.66.1-1.2,14.62h.22c3.15-8.73,7.61-15.88,12.46-15.88a6.8,6.8,0,0,1,5.6,2.63l-1.77,6.94a5.78,5.78,0,0,0-4.63-2.21c-4.28,0-8.74,7.46-12.51,18.5l-2.92,26.5h-4.4Z"/>
        <path class="cls-4" d="M1131.11,1554.79c0-18.3,6.8-34.07,15.26-34.07,3.94,0,6.91,3,8.45,7.68h.23l1.15-6.42h3.6l-5.6,51.1h-3.6l.4-7.78h-.23c-2.92,5.46-6.57,9-10.17,9C1134.88,1574.34,1131.11,1567.51,1131.11,1554.79Zm20.34,2.83L1154,1535c-1.88-5.36-4.51-7.47-7.08-7.47-6.34,0-11.32,12.31-11.32,26,0,9.57,2.52,14,6.35,14C1145,1567.51,1148.42,1564.14,1151.45,1557.62Z"/>
        <path class="cls-4" d="M1166.25,1551.84c0-18.61,8.06-31.12,16.75-31.12,4.85,0,8.46,4.31,10.46,9.15l-2.86,4.62c-2-4.62-4.57-6.94-8.17-6.94-5.72,0-11.72,10.31-11.72,23.34,0,11.15,3.77,16.62,8.92,16.62,3.25,0,6.28-2.84,8.85-7l1.77,5.57c-2.91,4.94-7,8.31-11.2,8.31C1171.8,1574.34,1166.25,1566.77,1166.25,1551.84Z"/>
        <path class="cls-4" d="M1205.8,1559.73a53.6,53.6,0,0,1,.46-6.63l2.74-24.6h-8.06l.63-6,8.34-.53,2.4-16.4H1216l-1.83,16.4h13.66l-.74,6.52h-13.72l-2.8,24.81a36.05,36.05,0,0,0-.28,4.63c0,6.52,2,9.57,5.14,9.57,2.74,0,5.2-1.58,7.2-3.68l1.43,5.88a13.11,13.11,0,0,1-9.77,4.63C1208.43,1574.34,1205.8,1568.45,1205.8,1559.73Z"/>
        <path class="cls-4" d="M1243.34,1561.51a54.62,54.62,0,0,1,.4-5.67l3.38-27.34h-10.18l.75-6.52h14.51l-4.11,34.7a22.87,22.87,0,0,0-.23,3.26c0,5.36,1.71,7.57,4.23,7.57,1.71,0,3.31-1.06,5.31-2.63l1,6.09c-2.34,2-4.57,3.37-7.6,3.37C1246.37,1574.34,1243.34,1569.92,1243.34,1561.51Zm4-56c0-3.89,1.83-7.26,3.94-7.26s3.31,2.11,3.31,5.68c0,4.1-1.82,7.25-4,7.25C1248.72,1511.15,1247.29,1509.16,1247.29,1505.48Z"/>
        <path class="cls-4" d="M1270.26,1522h4.34l3.49,29.65c.57,5,1.08,10.2,1.6,15h.23c1.31-4.73,2.91-9.88,4.63-15.13L1294,1522h4.52l-16.8,51.1h-5.2Z"/>
        <path class="cls-4" d="M1303.18,1552.26c0-18.4,7.42-31.54,15.83-31.54,6.8,0,10.57,8.31,10.57,19.66a58,58,0,0,1-.75,9.15h-22.28l.57-6.31H1327l-1.83,1.58a31.72,31.72,0,0,0,.34-4.73c0-8-2.57-12.94-6.68-12.94-5.37,0-11.26,9.89-11.26,24.71,0,10.3,3.31,16.09,8.34,16.09,3.66,0,6.92-2.84,9.49-6.63l1.66,5.47c-2.8,4.1-7.15,7.57-12,7.57C1307.8,1574.34,1303.18,1566.56,1303.18,1552.26Z"/>
        <path class="cls-4" d="M1379,1494.23h4v105.13h-4Z"/>
        <path class="cls-4" d="M1426.84,1554.79c0-18.3,6.8-34.07,15.26-34.07,3.94,0,6.74,3,8.34,7.47h.17l1-10,2.17-20h4.41l-8.23,74.86h-3.6l.4-7.78h-.23c-2.92,5.46-6.57,9-10.17,9C1430.61,1574.34,1426.84,1567.51,1426.84,1554.79Zm20.34,2.83,2.57-22.6c-1.88-5.36-4.51-7.47-7.08-7.47-6.34,0-11.32,12.31-11.32,26,0,9.57,2.52,14,6.35,14C1440.73,1567.51,1444.15,1564.14,1447.18,1557.62Z"/>
        <path class="cls-4" d="M1461.13,1554.79c0-18.3,6.8-34.07,15.26-34.07,3.94,0,6.91,3,8.45,7.68h.23l1.14-6.42h3.6l-5.6,51.1h-3.6l.4-7.78h-.22c-2.92,5.46-6.58,9-10.18,9C1464.9,1574.34,1461.13,1567.51,1461.13,1554.79Zm20.34,2.83L1484,1535c-1.88-5.36-4.51-7.47-7.08-7.47-6.35,0-11.32,12.31-11.32,26,0,9.57,2.52,14,6.35,14C1475,1567.51,1478.44,1564.14,1481.47,1557.62Z"/>
        <path class="cls-4" d="M1501.53,1559.73a53.6,53.6,0,0,1,.46-6.63l2.74-24.6h-8.06l.63-6,8.34-.53,2.4-16.4h3.66l-1.83,16.4h13.66l-.74,6.52h-13.72l-2.8,24.81a36.05,36.05,0,0,0-.28,4.63c0,6.52,2,9.57,5.14,9.57,2.74,0,5.2-1.58,7.2-3.68l1.43,5.88a13.11,13.11,0,0,1-9.77,4.63C1504.16,1574.34,1501.53,1568.45,1501.53,1559.73Z"/>
        <path class="cls-4" d="M1529.7,1554.79c0-18.3,6.8-34.07,15.26-34.07,3.94,0,6.92,3,8.46,7.68h.23l1.14-6.42h3.6l-5.6,51.1h-3.6l.4-7.78h-.23c-2.91,5.46-6.57,9-10.17,9C1533.47,1574.34,1529.7,1567.51,1529.7,1554.79Zm20.35,2.83,2.57-22.6c-1.89-5.36-4.52-7.47-7.09-7.47-6.34,0-11.31,12.31-11.31,26,0,9.57,2.51,14,6.34,14C1543.59,1567.51,1547,1564.14,1550.05,1557.62Z"/>
      </g>
    </g>
    <g id="main-red">
      <g id="Layer_41_copy_2" data-name="Layer 41 copy 2">
        <rect class="cls-1" x="2000" y="1200" width="2000" height="1200"/>
      </g>
      <g id="clue-type-2" data-name="clue-type">
        <g>
          <path class="cls-5" d="M2763.63,1834.77V1613h-93.46v-83.49h200.62v309c0,36.14,24.92,46.11,46.73,46.11,13.09,0,26.79-2.49,44.86-8.72l23,78.5c-33.64,10-56.07,16.2-96.57,16.2C2806,1970.6,2763.63,1915.77,2763.63,1834.77Z"/>
          <path class="cls-5" d="M2991.66,1843.5V1651.59h107.16v178.2c0,34.89,7.48,49.84,35.52,49.84,18.07,0,30.53-5,46.73-27.41V1651.59h107.16v311.54H3201l-7.47-41.13H3191c-26.17,29.91-57.33,48.6-100.94,48.6C3020.32,1970.6,2991.66,1920.76,2991.66,1843.5Z"/>
          <path class="cls-5" d="M3308.79,1807.36c0-102.18,79.75-163.24,163.24-163.24,98.44,0,148.29,67.29,148.29,150.78,0,18.69-3.12,37.38-4.36,44.86H3389.78V1770h152l-14.95,18.69c0-41.13-16.2-63.55-51.09-63.55-41.13,0-63.56,26.16-63.56,82.24,0,58.57,28.66,82.24,86,82.24,24.92,0,47.35-6.23,74.76-18.69l34.9,63.55c-37.39,23.68-86,36.14-124.62,36.14C3384.8,1970.6,3308.79,1910.79,3308.79,1807.36Z"/>
        </g>
        <path class="cls-5" d="M2424.68,1807.36c0-103.43,86-163.24,182.56-163.24,48.6,0,91.59,16.2,117.76,41.12l-48.6,66c-23.05-15.57-43-21.18-62.93-21.18-46.73,0-79.13,29.91-79.13,77.26s31.78,77.26,75.39,77.26c30.53,0,55.45-13.09,76.64-26.17l42.37,67.29c-38.63,31.78-88.48,44.86-129.6,44.86C2500.7,1970.6,2424.68,1910.79,2424.68,1807.36Z"/>
      </g>
      <g id="brackets-2" data-name="brackets">
        <path class="cls-6" d="M3619.16,2014.27H3647c55.61,0,68.15-14.18,68.15-49.61,0-33.26-3.27-61.61-3.27-98.68,0-35.43,11.45-52.88,49.06-59.42v-2.18c-37.61-6.54-49.06-24-49.06-59.42,0-33.8,3.27-67.61,3.27-98.68,0-35.44-12.54-49.61-68.15-49.61h-27.8v-25.62h33.25c68.69,0,100.31,16.35,100.31,72.5,0,37.62-4.9,70.88-4.9,105.22,0,21.26,14.72,42,79,42.52v28.35c-64.33.55-79,21.26-79,42.53,0,36.52,4.9,65.42,4.9,105.21,0,56.16-31.62,72.51-100.31,72.51h-33.25Z"/>
        <path class="cls-6" d="M2302.33,1967.38c0-39.8,5.45-68.69,5.45-105.21,0-21.27-14.72-42-79.05-42.53v-28.35c64.33-.54,79.05-21.26,79.05-42.52,0-34.34-5.45-67.6-5.45-105.22,0-56.15,32.71-72.5,100.86-72.5H2437v25.62h-28.35c-55.61,0-67.6,14.17-67.6,49.61,0,31.07,3.27,64.87,3.27,98.68,0,35.43-12,52.88-49.61,59.42v2.18c37.62,6.54,49.61,24,49.61,59.42,0,37.07-3.27,65.42-3.27,98.68,0,35.43,12,49.61,67.6,49.61H2437v25.62h-33.8C2335,2039.89,2302.33,2023.53,2302.33,1967.38Z"/>
      </g>
      <g id="research-2" data-name="research">
        <g>
          <path class="cls-4" d="M2801,2032.19c0-7,5.05-11.92,11.36-11.92s11.35,4.91,11.35,11.92-5,11.91-11.35,11.91S2801,2039.34,2801,2032.19Zm0,50.18c0-7,5.05-11.91,11.36-11.91s11.35,4.9,11.35,11.91-5,11.92-11.35,11.92S2801,2089.52,2801,2082.37Z"/>
          <path class="cls-4" d="M2868.28,2000.65H2897c18.65,0,32.24,6.73,32.24,25.93,0,18.36-13.59,27.2-32.24,27.2H2880.2v38.83h-11.92Zm27.06,43.59c14.3,0,22.15-5.88,22.15-17.66,0-12.06-7.85-16.4-22.15-16.4H2880.2v34.06Zm8.55.14,28,48.23h-13.32l-24-42.06Z"/>
          <path class="cls-4" d="M2954.5,2000.65h56.91v9.95h-45.14v28.74h38.13v10h-38.13v33.36h46.54v10H2954.5Z"/>
          <path class="cls-4" d="M3032,2080.69l7-8.13a38.66,38.66,0,0,0,26.91,11.35c12.62,0,19.91-6,19.91-14.43,0-9.82-7.15-12.62-16.4-16.55l-13.32-5.88c-9.11-3.65-19.77-10.1-19.77-23.69,0-14,12.62-24.4,30.14-24.4a40.11,40.11,0,0,1,28.32,11.36l-6.17,7.57a32.27,32.27,0,0,0-22.57-8.55c-10.65,0-17.8,5-17.8,13.31,0,8.84,8.55,12.06,16.4,15.14l12.9,5.75c11.35,4.49,20.32,10.94,20.32,24.53,0,14.58-12.33,26.22-32.52,26.22A46.74,46.74,0,0,1,3032,2080.69Z"/>
          <path class="cls-4" d="M3122.72,2000.65h56.91v9.95h-45.14v28.74h38.13v10h-38.13v33.36H3181v10h-58.32Z"/>
          <path class="cls-4" d="M3226.18,2000.65h13.45l31,92H3258l-15.84-51.31c-3.23-10.23-6.31-20.33-9.12-31h-.56c-2.94,10.65-5.88,20.75-9.11,31l-16.12,51.31H3195.2Zm-14.58,54.53h42.19v9.53H3211.6Z"/>
          <path class="cls-4" d="M3288.84,2000.65h28.74c18.64,0,32.24,6.73,32.24,25.93,0,18.36-13.6,27.2-32.24,27.2h-16.83v38.83h-11.91Zm27,43.59c14.3,0,22.15-5.88,22.15-17.66,0-12.06-7.85-16.4-22.15-16.4h-15.14v34.06Zm8.55.14,28,48.23h-13.32l-24-42.06Z"/>
          <path class="cls-4" d="M3368.18,2046.63c0-29.58,17.25-47.67,41.22-47.67a34.46,34.46,0,0,1,25.23,11.22l-6.73,7.43c-4.77-5-10.79-8.27-18.5-8.27-17.53,0-29,14.16-29,37,0,23.13,11.49,37.56,29,37.56,8.41,0,14.86-3.64,20.6-10.09l6.73,7.15c-7.15,8.41-16.26,13.32-28.45,13.32C3385.57,2094.29,3368.18,2076.63,3368.18,2046.63Z"/>
          <path class="cls-4" d="M3454.26,2000.65h11.91v38.41h38.13v-38.41h11.92v92H3504.3v-43.18h-38.13v43.18h-11.91Z"/>
          <path class="cls-4" d="M3554.77,2115.17c11.91-5.32,17.8-12.89,17.66-24.53l-2.52-12.89,7.85,11.07a9.9,9.9,0,0,1-7.85,3.22c-6,0-10.94-3.5-10.94-10.51s5.19-10.65,11.22-10.65c8.27,0,12.62,6.87,12.62,17.94,0,16.4-9.26,27.9-24.68,33.64Zm3.22-83c0-7,5.05-11.92,11.36-11.92s11.35,4.91,11.35,11.92-5,11.91-11.35,11.91S3558,2039.34,3558,2032.19Z"/>
        </g>
      </g>
      <g id="interactive-data-2" data-name="interactive-data">
        <path class="cls-4" d="M2958.8,1587.47a54.61,54.61,0,0,1,.4-5.68l3.38-27.33H2952.4l.75-6.52h14.51l-4.11,34.69a23.07,23.07,0,0,0-.23,3.26c0,5.36,1.71,7.57,4.23,7.57,1.71,0,3.31-1,5.31-2.63l1,6.1c-2.34,2-4.57,3.36-7.6,3.36C2961.83,1600.29,2958.8,1595.88,2958.8,1587.47Zm3.95-56c0-3.89,1.83-7.25,3.94-7.25s3.31,2.1,3.31,5.68c0,4.1-1.82,7.25-4,7.25C2964.18,1537.11,2962.75,1535.11,2962.75,1531.43Z"/>
        <path class="cls-4" d="M2988.29,1547.94H2992l-.74,10.41h.22c3.38-6.1,7.49-11.67,12.46-11.67s7.15,5,7.15,12.72a80.11,80.11,0,0,1-.52,8.41l-3.43,31.22h-4.4l3.32-30.38a66.73,66.73,0,0,0,.51-7.15c0-5-1.54-7.78-4.4-7.78-3.71,0-7.54,4.52-11.31,12.3l-3.6,33h-4.4Z"/>
        <path class="cls-4" d="M3024.12,1585.68a53.44,53.44,0,0,1,.46-6.62l2.74-24.6h-8.06l.63-6,8.35-.52,2.4-16.4h3.65l-1.82,16.4h13.65l-.74,6.52h-13.71l-2.8,24.81a36.13,36.13,0,0,0-.29,4.62c0,6.52,2,9.57,5.14,9.57,2.75,0,5.2-1.58,7.2-3.68l1.43,5.89a13.12,13.12,0,0,1-9.77,4.62C3026.75,1600.29,3024.12,1594.41,3024.12,1585.68Z"/>
        <path class="cls-4" d="M3052.92,1578.22c0-18.4,7.43-31.54,15.83-31.54,6.8,0,10.57,8.3,10.57,19.66a58.16,58.16,0,0,1-.74,9.14H3056.3l.57-6.3h19.83l-1.83,1.57a31.63,31.63,0,0,0,.34-4.73c0-8-2.57-12.93-6.69-12.93-5.37,0-11.25,9.88-11.25,24.71,0,10.3,3.31,16.08,8.34,16.08,3.66,0,6.91-2.84,9.49-6.62l1.65,5.47c-2.8,4.1-7.14,7.56-12,7.56C3057.55,1600.29,3052.92,1592.52,3052.92,1578.22Z"/>
        <path class="cls-4" d="M3094.64,1547.83l3.66.11-1.2,14.61h.23c3.14-8.72,7.6-15.87,12.45-15.87a6.77,6.77,0,0,1,5.6,2.63l-1.77,6.93a5.8,5.8,0,0,0-4.63-2.2c-4.28,0-8.74,7.46-12.51,18.5l-2.92,26.49h-4.4Z"/>
        <path class="cls-4" d="M3120.87,1580.74c0-18.29,6.8-34.06,15.26-34.06,3.94,0,6.91,3,8.46,7.67h.22l1.15-6.41h3.6L3144,1599h-3.6l.4-7.78h-.23c-2.92,5.47-6.57,9-10.17,9C3124.64,1600.29,3120.87,1593.46,3120.87,1580.74Zm20.34,2.84,2.58-22.6c-1.89-5.37-4.52-7.47-7.09-7.47-6.34,0-11.32,12.3-11.32,26,0,9.57,2.52,14,6.35,14C3134.76,1593.46,3138.19,1590.1,3141.21,1583.58Z"/>
        <path class="cls-4" d="M3156,1577.8c0-18.61,8.05-31.12,16.74-31.12,4.86,0,8.46,4.31,10.46,9.14l-2.86,4.63c-2-4.63-4.57-6.94-8.17-6.94-5.72,0-11.72,10.3-11.72,23.34,0,11.14,3.78,16.61,8.92,16.61,3.25,0,6.28-2.84,8.86-7L3180,1592c-2.92,4.94-7,8.3-11.2,8.3C3161.56,1600.29,3156,1592.73,3156,1577.8Z"/>
        <path class="cls-4" d="M3195.56,1585.68a53.44,53.44,0,0,1,.46-6.62l2.74-24.6h-8.06l.63-6,8.34-.52,2.41-16.4h3.65l-1.83,16.4h13.66l-.74,6.52H3203.1l-2.8,24.81a37.82,37.82,0,0,0-.28,4.62c0,6.52,2,9.57,5.14,9.57,2.74,0,5.2-1.58,7.2-3.68l1.43,5.89a13.14,13.14,0,0,1-9.77,4.62C3198.19,1600.29,3195.56,1594.41,3195.56,1585.68Z"/>
        <path class="cls-4" d="M3233.11,1587.47a52,52,0,0,1,.4-5.68l3.37-27.33h-10.17l.74-6.52H3242l-4.11,34.69a23.07,23.07,0,0,0-.23,3.26c0,5.36,1.71,7.57,4.23,7.57,1.71,0,3.31-1,5.31-2.63l1,6.1c-2.34,2-4.57,3.36-7.6,3.36C3236.13,1600.29,3233.11,1595.88,3233.11,1587.47Zm3.94-56c0-3.89,1.83-7.25,3.94-7.25s3.32,2.1,3.32,5.68c0,4.1-1.83,7.25-4,7.25C3238.48,1537.11,3237.05,1535.11,3237.05,1531.43Z"/>
        <path class="cls-4" d="M3260,1547.94h4.34l3.49,29.65c.57,5,1.09,10.19,1.6,15h.23c1.31-4.73,2.91-9.88,4.63-15.14l9.48-29.54h4.52l-16.8,51.09h-5.2Z"/>
        <path class="cls-4" d="M3292.94,1578.22c0-18.4,7.43-31.54,15.83-31.54,6.8,0,10.57,8.3,10.57,19.66a59.42,59.42,0,0,1-.74,9.14h-22.29l.57-6.3h19.83l-1.83,1.57a31.63,31.63,0,0,0,.34-4.73c0-8-2.57-12.93-6.68-12.93-5.37,0-11.26,9.88-11.26,24.71,0,10.3,3.31,16.08,8.34,16.08,3.66,0,6.92-2.84,9.49-6.62l1.66,5.47c-2.8,4.1-7.15,7.56-12,7.56C3297.57,1600.29,3292.94,1592.52,3292.94,1578.22Z"/>
        <path class="cls-4" d="M3368.77,1520.18h4v105.14h-4Z"/>
        <path class="cls-4" d="M3416.6,1580.74c0-18.29,6.8-34.06,15.26-34.06,3.94,0,6.74,2.94,8.34,7.46h.17l1-10,2.18-20h4.4l-8.23,74.85h-3.6l.4-7.78h-.23c-2.92,5.47-6.57,9-10.17,9C3420.37,1600.29,3416.6,1593.46,3416.6,1580.74Zm20.35,2.84,2.57-22.6c-1.89-5.37-4.52-7.47-7.09-7.47-6.34,0-11.31,12.3-11.31,26,0,9.57,2.51,14,6.34,14C3430.49,1593.46,3433.92,1590.1,3437,1583.58Z"/>
        <path class="cls-4" d="M3450.89,1580.74c0-18.29,6.8-34.06,15.26-34.06,3.94,0,6.91,3,8.45,7.67h.23l1.15-6.41h3.6L3474,1599h-3.6l.4-7.78h-.23c-2.92,5.47-6.57,9-10.17,9C3454.66,1600.29,3450.89,1593.46,3450.89,1580.74Zm20.34,2.84,2.57-22.6c-1.88-5.37-4.51-7.47-7.08-7.47-6.34,0-11.32,12.3-11.32,26,0,9.57,2.52,14,6.35,14C3464.78,1593.46,3468.2,1590.1,3471.23,1583.58Z"/>
        <path class="cls-4" d="M3491.29,1585.68a53.44,53.44,0,0,1,.46-6.62l2.74-24.6h-8.06l.63-6,8.35-.52,2.4-16.4h3.65l-1.83,16.4h13.66l-.74,6.52h-13.72l-2.8,24.81a37.82,37.82,0,0,0-.28,4.62c0,6.52,2,9.57,5.14,9.57,2.74,0,5.2-1.58,7.2-3.68l1.43,5.89a13.14,13.14,0,0,1-9.77,4.62C3493.92,1600.29,3491.29,1594.41,3491.29,1585.68Z"/>
        <path class="cls-4" d="M3519.46,1580.74c0-18.29,6.8-34.06,15.26-34.06,4,0,6.92,3,8.46,7.67h.23l1.14-6.41h3.6l-5.6,51.09H3539l.4-7.78h-.23c-2.91,5.47-6.57,9-10.17,9C3523.24,1600.29,3519.46,1593.46,3519.46,1580.74Zm20.35,2.84,2.57-22.6c-1.89-5.37-4.51-7.47-7.09-7.47-6.34,0-11.31,12.3-11.31,26,0,9.57,2.51,14,6.34,14C3533.35,1593.46,3536.78,1590.1,3539.81,1583.58Z"/>
      </g>
    </g>
  </g>
  <g id="context-light">
    <g id="main-blue-2" data-name="main-blue">
      <g id="Layer_41" data-name="Layer 41">
        <rect class="cls-7" width="2000" height="1200"/>
      </g>
      <g id="clue-type-3" data-name="clue-type">
        <g>
          <path class="cls-8" d="M751.63,631.35V409.54H658.17V326.05H858.8v309c0,36.13,24.92,46.1,46.73,46.1,13.08,0,26.79-2.49,44.86-8.72L973.44,751c-33.64,10-56.07,16.2-96.57,16.2C794,767.18,751.63,712.35,751.63,631.35Z"/>
          <path class="cls-8" d="M979.66,640.07V448.17h107.17V626.36c0,34.89,7.48,49.85,35.51,49.85,18.07,0,30.53-5,46.73-27.42V448.17h107.17V759.7H1189l-7.47-41.12H1179c-26.17,29.9-57.32,48.6-100.93,48.6C1008.32,767.18,979.66,717.33,979.66,640.07Z"/>
          <path class="cls-8" d="M1296.79,603.93c0-102.18,79.75-163.24,163.25-163.24,98.44,0,148.28,67.29,148.28,150.78,0,18.69-3.11,37.39-4.36,44.86H1377.79V566.55h152l-15,18.69c0-41.12-16.19-63.55-51.09-63.55-41.12,0-63.55,26.17-63.55,82.24,0,58.57,28.66,82.25,86,82.25,24.93,0,47.36-6.23,74.77-18.69L1595.86,731c-37.38,23.67-86,36.14-124.61,36.14C1372.81,767.18,1296.79,707.36,1296.79,603.93Z"/>
        </g>
        <path class="cls-8" d="M412.69,603.93c0-103.43,86-163.24,182.56-163.24,48.6,0,91.59,16.2,117.76,41.12l-48.6,66.05c-23.06-15.58-43-21.19-62.93-21.19-46.73,0-79.13,29.91-79.13,77.26s31.78,77.26,75.39,77.26c30.53,0,55.45-13.08,76.64-26.17l42.36,67.3c-38.63,31.77-88.47,44.86-129.59,44.86C488.7,767.18,412.69,707.36,412.69,603.93Z"/>
      </g>
      <g id="brackets-3" data-name="brackets">
        <path class="cls-9" d="M1607.17,810.84H1635c55.61,0,68.15-14.17,68.15-49.61,0-33.25-3.28-61.6-3.28-98.67,0-35.44,11.45-52.89,49.07-59.43V601c-37.62-6.54-49.07-24-49.07-59.42,0-33.8,3.28-67.6,3.28-98.68,0-35.43-12.54-49.61-68.15-49.61h-27.8V367.62h33.25c68.69,0,100.31,16.36,100.31,72.51,0,37.61-4.9,70.87-4.9,105.22,0,21.26,14.71,42,79,42.52v28.35c-64.33.54-79,21.26-79,42.52,0,36.53,4.9,65.42,4.9,105.22,0,56.15-31.62,72.5-100.31,72.5h-33.25Z"/>
        <path class="cls-9" d="M290.34,764c0-39.8,5.45-68.69,5.45-105.22,0-21.26-14.72-42-79.05-42.52V587.87c64.33-.55,79.05-21.26,79.05-42.53,0-34.34-5.45-67.6-5.45-105.21,0-56.15,32.71-72.51,100.85-72.51H425v25.62H396.65c-55.61,0-67.6,14.18-67.6,49.61,0,31.08,3.27,64.88,3.27,98.68,0,35.43-12,52.88-49.61,59.42v2.18c37.61,6.54,49.61,24,49.61,59.43,0,37.07-3.27,65.42-3.27,98.67,0,35.44,12,49.61,67.6,49.61H425v25.62H391.19C323.05,836.46,290.34,820.11,290.34,764Z"/>
      </g>
      <g id="research-3" data-name="research">
        <g>
          <path class="cls-10" d="M789,828.76c0-7,5-11.91,11.36-11.91s11.35,4.9,11.35,11.91-5.05,11.92-11.35,11.92S789,835.91,789,828.76ZM789,879c0-7,5-11.92,11.36-11.92s11.35,4.91,11.35,11.92-5.05,11.91-11.35,11.91S789,886.1,789,879Z"/>
          <path class="cls-10" d="M856.29,797.22H885c18.64,0,32.24,6.73,32.24,25.93,0,18.37-13.6,27.2-32.24,27.2H868.21v38.83H856.29Zm27.06,43.6c14.29,0,22.14-5.89,22.14-17.67,0-12-7.85-16.4-22.14-16.4H868.21v34.07Zm8.55.14,28,48.22H906.62l-24-42Z"/>
          <path class="cls-10" d="M942.5,797.22h56.92v9.95H954.28v28.74h38.13v10H954.28v33.37h46.54v9.95H942.5Z"/>
          <path class="cls-10" d="M1020,877.26l7-8.13A38.65,38.65,0,0,0,1054,880.49c12.62,0,19.91-6,19.91-14.44,0-9.81-7.15-12.62-16.4-16.54l-13.32-5.89c-9.11-3.64-19.77-10.09-19.77-23.69,0-14,12.62-24.39,30.14-24.39a40.11,40.11,0,0,1,28.32,11.35l-6.17,7.57a32.31,32.31,0,0,0-22.57-8.55c-10.65,0-17.8,5.05-17.8,13.32,0,8.83,8.55,12,16.4,15.14l12.9,5.75c11.35,4.48,20.32,10.93,20.32,24.53,0,14.58-12.33,26.21-32.52,26.21A46.69,46.69,0,0,1,1020,877.26Z"/>
          <path class="cls-10" d="M1110.73,797.22h56.91v9.95H1122.5v28.74h38.13v10H1122.5v33.37H1169v9.95h-58.31Z"/>
          <path class="cls-10" d="M1214.18,797.22h13.46l31,92H1246l-15.84-51.31c-3.22-10.23-6.3-20.32-9.11-31h-.56c-2.94,10.66-5.89,20.75-9.11,31l-16.12,51.31H1183.2Zm-14.58,54.53h42.2v9.53h-42.2Z"/>
          <path class="cls-10" d="M1276.85,797.22h28.73c18.65,0,32.25,6.73,32.25,25.93,0,18.37-13.6,27.2-32.25,27.2h-16.82v38.83h-11.91Zm27.05,43.6c14.3,0,22.15-5.89,22.15-17.67,0-12-7.85-16.4-22.15-16.4h-15.14v34.07Zm8.55.14,28,48.22h-13.32l-24-42Z"/>
          <path class="cls-10" d="M1356.19,843.2c0-29.58,17.24-47.66,41.21-47.66a34.46,34.46,0,0,1,25.24,11.21l-6.73,7.43c-4.77-5-10.8-8.27-18.51-8.27-17.52,0-29,14.16-29,37,0,23.13,11.49,37.57,29,37.57,8.41,0,14.86-3.65,20.61-10.1l6.73,7.15c-7.15,8.42-16.26,13.32-28.46,13.32C1373.57,890.86,1356.19,873.2,1356.19,843.2Z"/>
          <path class="cls-10" d="M1442.26,797.22h11.92v38.41h38.13V797.22h11.92v92h-11.92V846h-38.13v43.18h-11.92Z"/>
          <path class="cls-10" d="M1542.78,911.75c11.91-5.33,17.8-12.9,17.66-24.53l-2.52-12.9,7.85,11.07a9.89,9.89,0,0,1-7.85,3.23c-6,0-10.94-3.51-10.94-10.51s5.19-10.66,11.22-10.66c8.27,0,12.61,6.87,12.61,17.94,0,16.41-9.25,27.9-24.67,33.65Zm3.22-83c0-7,5-11.91,11.36-11.91s11.35,4.9,11.35,11.91-5,11.92-11.35,11.92S1546,835.91,1546,828.76Z"/>
        </g>
      </g>
      <g id="interactive-data-3" data-name="interactive-data">
        <path class="cls-10" d="M946.81,384a52,52,0,0,1,.4-5.67L950.58,351H940.41l.74-6.52h14.52l-4.12,34.7a22.77,22.77,0,0,0-.22,3.26c0,5.36,1.71,7.57,4.23,7.57,1.71,0,3.31-1.06,5.31-2.63l1,6.09c-2.34,2-4.57,3.37-7.6,3.37C949.84,396.87,946.81,392.45,946.81,384Zm3.94-56c0-3.89,1.83-7.26,4-7.26s3.31,2.11,3.31,5.68c0,4.1-1.83,7.25-4,7.25C952.18,333.68,950.75,331.69,950.75,328Z"/>
        <path class="cls-10" d="M976.3,344.51H980l-.75,10.41h.23c3.37-6.1,7.49-11.67,12.46-11.67S999,348.3,999,356a82.74,82.74,0,0,1-.51,8.41l-3.43,31.23h-4.4L994,365.22a64,64,0,0,0,.52-7.15c0-5-1.54-7.78-4.4-7.78-3.72,0-7.54,4.53-11.32,12.31l-3.6,33h-4.4Z"/>
        <path class="cls-10" d="M1012.13,382.26a53.6,53.6,0,0,1,.46-6.63l2.74-24.6h-8.06l.63-6,8.34-.53,2.4-16.4h3.66l-1.83,16.4h13.66l-.74,6.52h-13.72l-2.8,24.81a36,36,0,0,0-.28,4.63c0,6.52,2,9.57,5.14,9.57,2.74,0,5.2-1.58,7.2-3.68l1.43,5.88a13.11,13.11,0,0,1-9.77,4.63C1014.76,396.87,1012.13,391,1012.13,382.26Z"/>
        <path class="cls-10" d="M1040.93,374.79c0-18.4,7.43-31.54,15.83-31.54,6.8,0,10.57,8.31,10.57,19.66a58.31,58.31,0,0,1-.74,9.15H1044.3l.57-6.31h19.83l-1.82,1.58a33.22,33.22,0,0,0,.34-4.73c0-8-2.57-12.94-6.69-12.94-5.37,0-11.26,9.89-11.26,24.71,0,10.3,3.32,16.09,8.35,16.09,3.65,0,6.91-2.84,9.48-6.63l1.66,5.47c-2.8,4.1-7.14,7.57-12,7.57C1045.56,396.87,1040.93,389.09,1040.93,374.79Z"/>
        <path class="cls-10" d="M1082.65,344.41l3.66.1-1.21,14.62h.23c3.15-8.73,7.6-15.88,12.46-15.88a6.8,6.8,0,0,1,5.6,2.63l-1.77,6.94a5.78,5.78,0,0,0-4.63-2.21c-4.28,0-8.74,7.46-12.51,18.5l-2.92,26.5h-4.4Z"/>
        <path class="cls-10" d="M1108.88,377.31c0-18.29,6.8-34.06,15.26-34.06,3.94,0,6.91,3.05,8.45,7.68h.23l1.14-6.42h3.6l-5.6,51.1h-3.6l.4-7.78h-.22c-2.92,5.46-6.58,9-10.18,9C1112.65,396.87,1108.88,390,1108.88,377.31Zm20.34,2.84,2.57-22.6c-1.88-5.36-4.51-7.47-7.08-7.47-6.35,0-11.32,12.31-11.32,26,0,9.57,2.52,14,6.35,14C1122.76,390,1126.19,386.67,1129.22,380.15Z"/>
        <path class="cls-10" d="M1144,374.37c0-18.61,8.06-31.12,16.75-31.12,4.85,0,8.45,4.31,10.45,9.15l-2.85,4.62c-2-4.62-4.57-6.94-8.17-6.94-5.72,0-11.72,10.31-11.72,23.34,0,11.15,3.77,16.62,8.92,16.62,3.25,0,6.28-2.84,8.85-7.05l1.77,5.57c-2.91,4.94-7,8.31-11.2,8.31C1149.57,396.87,1144,389.3,1144,374.37Z"/>
        <path class="cls-10" d="M1183.57,382.26a53.6,53.6,0,0,1,.46-6.63l2.74-24.6h-8.06l.63-6,8.34-.53,2.4-16.4h3.66l-1.83,16.4h13.66l-.74,6.52h-13.72l-2.8,24.81a36,36,0,0,0-.28,4.63c0,6.52,2,9.57,5.14,9.57,2.74,0,5.2-1.58,7.2-3.68l1.43,5.88a13.11,13.11,0,0,1-9.77,4.63C1186.2,396.87,1183.57,391,1183.57,382.26Z"/>
        <path class="cls-10" d="M1221.11,384a52,52,0,0,1,.4-5.67l3.37-27.34h-10.17l.75-6.52H1230l-4.11,34.7a21.49,21.49,0,0,0-.23,3.26c0,5.36,1.71,7.57,4.23,7.57,1.71,0,3.31-1.06,5.31-2.63l1,6.09c-2.34,2-4.57,3.37-7.6,3.37C1224.14,396.87,1221.11,392.45,1221.11,384Zm4-56c0-3.89,1.82-7.26,3.94-7.26s3.31,2.11,3.31,5.68c0,4.1-1.83,7.25-4,7.25C1226.48,333.68,1225.06,331.69,1225.06,328Z"/>
        <path class="cls-10" d="M1248,344.51h4.34l3.49,29.65c.57,5,1.08,10.2,1.6,15h.23c1.31-4.73,2.91-9.88,4.63-15.13l9.48-29.55h4.52l-16.8,51.1h-5.21Z"/>
        <path class="cls-10" d="M1281,374.79c0-18.4,7.42-31.54,15.82-31.54,6.8,0,10.58,8.31,10.58,19.66a58,58,0,0,1-.75,9.15h-22.28l.57-6.31h19.83l-1.83,1.58a31.82,31.82,0,0,0,.34-4.73c0-8-2.57-12.94-6.68-12.94-5.38,0-11.26,9.89-11.26,24.71,0,10.3,3.31,16.09,8.34,16.09,3.66,0,6.92-2.84,9.49-6.63l1.65,5.47c-2.8,4.1-7.14,7.57-12,7.57C1285.57,396.87,1281,389.09,1281,374.79Z"/>
        <path class="cls-10" d="M1356.78,316.76h4V421.89h-4Z"/>
        <path class="cls-10" d="M1404.61,377.31c0-18.29,6.8-34.06,15.26-34.06,3.94,0,6.74,2.94,8.34,7.47h.17l1-10,2.17-20h4.4l-8.22,74.86h-3.6l.4-7.78h-.23c-2.92,5.46-6.57,9-10.17,9C1408.38,396.87,1404.61,390,1404.61,377.31Zm20.34,2.84,2.57-22.6c-1.88-5.36-4.51-7.47-7.08-7.47-6.34,0-11.32,12.31-11.32,26,0,9.57,2.52,14,6.35,14C1418.5,390,1421.92,386.67,1425,380.15Z"/>
        <path class="cls-10" d="M1438.9,377.31c0-18.29,6.8-34.06,15.25-34.06,3.95,0,6.92,3.05,8.46,7.68h.23l1.14-6.42h3.6l-5.6,51.1h-3.6l.4-7.78h-.23c-2.91,5.46-6.57,9-10.17,9C1442.67,396.87,1438.9,390,1438.9,377.31Zm20.34,2.84,2.57-22.6c-1.88-5.36-4.51-7.47-7.08-7.47-6.35,0-11.32,12.31-11.32,26,0,9.57,2.52,14,6.34,14C1452.78,390,1456.21,386.67,1459.24,380.15Z"/>
        <path class="cls-10" d="M1479.3,382.26a53.6,53.6,0,0,1,.46-6.63l2.74-24.6h-8.06l.63-6,8.34-.53,2.4-16.4h3.66l-1.83,16.4h13.66l-.74,6.52h-13.72l-2.8,24.81a36,36,0,0,0-.28,4.63c0,6.52,2,9.57,5.14,9.57,2.74,0,5.2-1.58,7.2-3.68l1.43,5.88a13.11,13.11,0,0,1-9.77,4.63C1481.93,396.87,1479.3,391,1479.3,382.26Z"/>
        <path class="cls-10" d="M1507.47,377.31c0-18.29,6.8-34.06,15.26-34.06,3.94,0,6.91,3.05,8.46,7.68h.23l1.14-6.42h3.6l-5.6,51.1H1527l.4-7.78h-.23c-2.91,5.46-6.57,9-10.17,9C1511.24,396.87,1507.47,390,1507.47,377.31Zm20.35,2.84,2.57-22.6c-1.89-5.36-4.52-7.47-7.09-7.47-6.34,0-11.31,12.31-11.31,26,0,9.57,2.51,14,6.34,14C1521.36,390,1524.79,386.67,1527.82,380.15Z"/>
      </g>
    </g>
    <g id="main-red-2" data-name="main-red">
      <g id="Layer_41_copy" data-name="Layer 41 copy">
        <rect class="cls-7" x="2000" width="2000" height="1200"/>
      </g>
      <g id="clue-type-4" data-name="clue-type">
        <g>
          <path class="cls-11" d="M2758.66,636V414.14H2665.2V330.65h200.63v309c0,36.14,24.92,46.11,46.73,46.11,13.08,0,26.79-2.49,44.86-8.72l23,78.5c-33.65,10-56.08,16.2-96.57,16.2C2801,771.78,2758.66,717,2758.66,636Z"/>
          <path class="cls-11" d="M2986.69,644.68V452.77h107.17V631c0,34.89,7.47,49.84,35.51,49.84,18.07,0,30.53-5,46.73-27.41V452.77h107.17V764.3H3196l-7.48-41.12h-2.49c-26.17,29.91-57.32,48.6-100.94,48.6C3015.35,771.78,2986.69,721.94,2986.69,644.68Z"/>
          <path class="cls-11" d="M3303.82,608.54c0-102.18,79.75-163.24,163.24-163.24,98.45,0,148.29,67.29,148.29,150.78,0,18.69-3.11,37.38-4.36,44.86H3384.82V571.16h152l-15,18.69c0-41.12-16.2-63.56-51.09-63.56-41.12,0-63.55,26.17-63.55,82.25,0,58.57,28.66,82.24,86,82.24,24.92,0,47.35-6.23,74.77-18.69l34.89,63.55c-37.38,23.68-86,36.14-124.61,36.14C3379.83,771.78,3303.82,712,3303.82,608.54Z"/>
        </g>
        <path class="cls-11" d="M2419.72,608.54c0-103.43,86-163.24,182.55-163.24,48.6,0,91.6,16.2,117.76,41.12l-48.6,66c-23-15.57-43-21.18-62.93-21.18-46.72,0-79.12,29.91-79.12,77.26s31.77,77.26,75.39,77.26c30.53,0,55.45-13.09,76.63-26.17l42.37,67.29c-38.63,31.78-88.47,44.86-129.6,44.86C2495.73,771.78,2419.72,712,2419.72,608.54Z"/>
      </g>
      <g id="brackets-4" data-name="brackets">
        <path class="cls-12" d="M3614.19,815.45H3642c55.6,0,68.14-14.18,68.14-49.61,0-33.26-3.27-61.61-3.27-98.68,0-35.43,11.45-52.88,49.07-59.42v-2.18c-37.62-6.54-49.07-24-49.07-59.43,0-33.8,3.27-67.6,3.27-98.67,0-35.44-12.54-49.61-68.14-49.61h-27.81V372.23h33.26c68.69,0,100.31,16.35,100.31,72.5,0,37.62-4.91,70.88-4.91,105.22,0,21.26,14.72,42,79.05,42.52v28.35c-64.33.55-79.05,21.26-79.05,42.53,0,36.52,4.91,65.42,4.91,105.21,0,56.15-31.62,72.51-100.31,72.51h-33.26Z"/>
        <path class="cls-12" d="M2297.37,768.56c0-39.8,5.45-68.69,5.45-105.22,0-21.26-14.72-42-79.05-42.52V592.47c64.33-.54,79.05-21.26,79.05-42.52,0-34.34-5.45-67.6-5.45-105.22,0-56.15,32.71-72.5,100.85-72.5H2432v25.62h-28.35c-55.6,0-67.6,14.17-67.6,49.61,0,31.07,3.27,64.87,3.27,98.67,0,35.44-12,52.89-49.61,59.43v2.18c37.62,6.54,49.61,24,49.61,59.42,0,37.07-3.27,65.42-3.27,98.68,0,35.43,12,49.61,67.6,49.61H2432v25.62h-33.8C2330.08,841.07,2297.37,824.71,2297.37,768.56Z"/>
      </g>
      <g id="research-4" data-name="research">
        <g>
          <path class="cls-10" d="M2796,833.37c0-7,5-11.92,11.35-11.92s11.36,4.91,11.36,11.92-5,11.91-11.36,11.91S2796,840.52,2796,833.37Zm0,50.18c0-7,5-11.91,11.35-11.91s11.36,4.9,11.36,11.91-5,11.92-11.36,11.92S2796,890.7,2796,883.55Z"/>
          <path class="cls-10" d="M2863.32,801.83h28.74c18.64,0,32.24,6.72,32.24,25.93,0,18.36-13.6,27.2-32.24,27.2h-16.83v38.83h-11.91Zm27,43.59c14.3,0,22.15-5.88,22.15-17.66,0-12.06-7.85-16.4-22.15-16.4h-15.14v34.06Zm8.55.14,28,48.23h-13.32l-24-42.06Z"/>
          <path class="cls-10" d="M2949.53,801.83h56.92v9.95h-45.14v28.74h38.13v10h-38.13v33.36h46.54v10h-58.32Z"/>
          <path class="cls-10" d="M3027.05,881.87l7-8.13A38.67,38.67,0,0,0,3061,885.09c12.61,0,19.9-6,19.9-14.43,0-9.82-7.14-12.62-16.4-16.55l-13.31-5.88c-9.12-3.65-19.77-10.1-19.77-23.69,0-14,12.62-24.4,30.14-24.4a40.13,40.13,0,0,1,28.32,11.36l-6.17,7.57a32.31,32.31,0,0,0-22.57-8.55c-10.66,0-17.8,5-17.8,13.31,0,8.84,8.55,12.06,16.4,15.14l12.89,5.75c11.36,4.49,20.33,10.94,20.33,24.53,0,14.58-12.34,26.22-32.52,26.22A46.78,46.78,0,0,1,3027.05,881.87Z"/>
          <path class="cls-10" d="M3117.75,801.83h56.92v9.95h-45.14v28.74h38.13v10h-38.13v33.36h46.54v10h-58.32Z"/>
          <path class="cls-10" d="M3221.21,801.83h13.46l31,92H3253l-15.84-51.31c-3.22-10.23-6.31-20.33-9.11-31h-.56c-2.94,10.65-5.89,20.75-9.11,31l-16.12,51.31h-12.06Zm-14.58,54.53h42.2v9.53h-42.2Z"/>
          <path class="cls-10" d="M3283.87,801.83h28.74c18.64,0,32.24,6.72,32.24,25.93,0,18.36-13.6,27.2-32.24,27.2h-16.82v38.83h-11.92Zm27.06,43.59c14.3,0,22.15-5.88,22.15-17.66,0-12.06-7.85-16.4-22.15-16.4h-15.14v34.06Zm8.55.14,28,48.23H3334.2l-24-42.06Z"/>
          <path class="cls-10" d="M3363.22,847.81c0-29.58,17.24-47.67,41.21-47.67a34.46,34.46,0,0,1,25.24,11.22l-6.73,7.43c-4.77-5-10.8-8.27-18.51-8.27-17.52,0-29,14.16-29,37,0,23.13,11.5,37.56,29,37.56,8.41,0,14.86-3.64,20.61-10.09l6.73,7.15c-7.15,8.41-16.26,13.32-28.46,13.32C3380.6,895.47,3363.22,877.8,3363.22,847.81Z"/>
          <path class="cls-10" d="M3449.29,801.83h11.92v38.41h38.13V801.83h11.91v92h-11.91V850.61h-38.13v43.18h-11.92Z"/>
          <path class="cls-10" d="M3549.8,916.35c11.92-5.32,17.81-12.89,17.67-24.53l-2.53-12.89,7.85,11.07a9.88,9.88,0,0,1-7.85,3.22c-6,0-10.93-3.5-10.93-10.51s5.19-10.65,11.21-10.65c8.28,0,12.62,6.87,12.62,17.94,0,16.4-9.25,27.9-24.67,33.64Zm3.23-83c0-7,5-11.92,11.35-11.92s11.36,4.91,11.36,11.92-5,11.91-11.36,11.91S3553,840.52,3553,833.37Z"/>
        </g>
      </g>
      <g id="interactive-data-4" data-name="interactive-data">
        <path class="cls-10" d="M2953.84,388.65a52,52,0,0,1,.4-5.68l3.37-27.33h-10.17l.74-6.52h14.52l-4.12,34.69a23.07,23.07,0,0,0-.23,3.26c0,5.36,1.72,7.57,4.23,7.57,1.72,0,3.32-1.05,5.32-2.63l1,6.1c-2.35,2-4.58,3.36-7.6,3.36C2956.87,401.47,2953.84,397.06,2953.84,388.65Zm3.94-56c0-3.89,1.83-7.25,3.95-7.25s3.31,2.1,3.31,5.68c0,4.1-1.83,7.25-4,7.25C2959.21,338.29,2957.78,336.29,2957.78,332.61Z"/>
        <path class="cls-10" d="M2983.33,349.12H2987l-.74,10.41h.23c3.37-6.1,7.49-11.67,12.46-11.67s7.14,5,7.14,12.72a82.92,82.92,0,0,1-.51,8.41l-3.43,31.22h-4.4l3.31-30.38a64.36,64.36,0,0,0,.52-7.15c0-5.05-1.55-7.78-4.4-7.78-3.72,0-7.55,4.52-11.32,12.3l-3.6,33h-4.4Z"/>
        <path class="cls-10" d="M3019.16,386.86a55.37,55.37,0,0,1,.45-6.62l2.75-24.6h-8.06l.63-6,8.34-.52,2.4-16.4h3.66l-1.83,16.4h13.66l-.74,6.52H3026.7l-2.8,24.81a36.13,36.13,0,0,0-.29,4.62c0,6.52,2,9.57,5.15,9.57,2.74,0,5.2-1.58,7.2-3.68l1.43,5.89a13.14,13.14,0,0,1-9.77,4.62C3021.79,401.47,3019.16,395.59,3019.16,386.86Z"/>
        <path class="cls-10" d="M3048,379.4c0-18.4,7.43-31.54,15.83-31.54,6.8,0,10.57,8.3,10.57,19.66a59.42,59.42,0,0,1-.74,9.14h-22.29l.57-6.31h19.83l-1.83,1.58a31.61,31.61,0,0,0,.35-4.73c0-8-2.58-12.93-6.69-12.93-5.37,0-11.26,9.88-11.26,24.71,0,10.3,3.32,16.08,8.35,16.08,3.65,0,6.91-2.84,9.48-6.62l1.66,5.46c-2.8,4.1-7.14,7.57-12,7.57C3052.59,401.47,3048,393.69,3048,379.4Z"/>
        <path class="cls-10" d="M3089.68,349l3.65.11-1.2,14.61h.23c3.14-8.72,7.6-15.87,12.46-15.87a6.8,6.8,0,0,1,5.6,2.62l-1.77,6.94a5.8,5.8,0,0,0-4.63-2.2c-4.29,0-8.74,7.46-12.52,18.5l-2.91,26.49h-4.4Z"/>
        <path class="cls-10" d="M3115.91,381.92c0-18.29,6.8-34.06,15.25-34.06,4,0,6.92,3.05,8.46,7.67h.23l1.14-6.41h3.6l-5.6,51.09h-3.6l.4-7.78h-.23c-2.91,5.47-6.57,9-10.17,9C3119.68,401.47,3115.91,394.64,3115.91,381.92Zm20.34,2.84,2.57-22.61c-1.89-5.36-4.51-7.46-7.09-7.46-6.34,0-11.31,12.3-11.31,26,0,9.57,2.51,14,6.34,14C3129.79,394.64,3133.22,391.28,3136.25,384.76Z"/>
        <path class="cls-10" d="M3151.05,379c0-18.61,8.06-31.12,16.74-31.12,4.86,0,8.46,4.31,10.46,9.14l-2.86,4.63c-2-4.63-4.57-6.94-8.17-6.94-5.71,0-11.71,10.3-11.71,23.34,0,11.14,3.77,16.61,8.91,16.61,3.26,0,6.29-2.84,8.86-7l1.77,5.57c-2.91,4.94-7,8.3-11.2,8.3C3156.59,401.47,3151.05,393.9,3151.05,379Z"/>
        <path class="cls-10" d="M3190.6,386.86a55.37,55.37,0,0,1,.45-6.62l2.75-24.6h-8.06l.63-6,8.34-.52,2.4-16.4h3.66l-1.83,16.4h13.66l-.75,6.52h-13.71l-2.8,24.81a36.13,36.13,0,0,0-.29,4.62c0,6.52,2,9.57,5.15,9.57,2.74,0,5.2-1.58,7.2-3.68l1.43,5.89a13.16,13.16,0,0,1-9.78,4.62C3193.22,401.47,3190.6,395.59,3190.6,386.86Z"/>
        <path class="cls-10" d="M3228.14,388.65a52,52,0,0,1,.4-5.68l3.37-27.33h-10.17l.74-6.52H3237l-4.12,34.69a23,23,0,0,0-.22,3.26c0,5.36,1.71,7.57,4.22,7.57,1.72,0,3.32-1.05,5.32-2.63l1,6.1c-2.35,2-4.57,3.36-7.6,3.36C3231.17,401.47,3228.14,397.06,3228.14,388.65Zm3.94-56c0-3.89,1.83-7.25,4-7.25s3.31,2.1,3.31,5.68c0,4.1-1.83,7.25-4,7.25C3233.51,338.29,3232.08,336.29,3232.08,332.61Z"/>
        <path class="cls-10" d="M3255.06,349.12h4.34l3.49,29.65c.57,5,1.08,10.19,1.6,15h.22c1.32-4.73,2.92-9.88,4.63-15.14l9.49-29.54h4.51l-16.8,51.09h-5.2Z"/>
        <path class="cls-10" d="M3288,379.4c0-18.4,7.43-31.54,15.83-31.54,6.8,0,10.57,8.3,10.57,19.66a58.16,58.16,0,0,1-.74,9.14h-22.29l.58-6.31h19.83l-1.83,1.58a33,33,0,0,0,.34-4.73c0-8-2.57-12.93-6.69-12.93-5.37,0-11.25,9.88-11.25,24.71,0,10.3,3.31,16.08,8.34,16.08,3.66,0,6.91-2.84,9.48-6.62l1.66,5.46c-2.8,4.1-7.14,7.57-12,7.57C3292.6,401.47,3288,393.69,3288,379.4Z"/>
        <path class="cls-10" d="M3363.8,321.36h4V426.5h-4Z"/>
        <path class="cls-10" d="M3411.64,381.92c0-18.29,6.8-34.06,15.25-34.06,4,0,6.75,2.94,8.35,7.46h.17l1-10,2.17-20h4.4l-8.23,74.85h-3.6l.4-7.78h-.23c-2.91,5.47-6.57,9-10.17,9C3415.41,401.47,3411.64,394.64,3411.64,381.92Zm20.34,2.84,2.57-22.61c-1.88-5.36-4.51-7.46-7.08-7.46-6.35,0-11.32,12.3-11.32,26,0,9.57,2.52,14,6.34,14C3425.52,394.64,3429,391.28,3432,384.76Z"/>
        <path class="cls-10" d="M3445.92,381.92c0-18.29,6.8-34.06,15.26-34.06,4,0,6.92,3.05,8.46,7.67h.23l1.14-6.41h3.6l-5.6,51.09h-3.6l.4-7.78h-.23c-2.91,5.47-6.57,9-10.17,9C3449.7,401.47,3445.92,394.64,3445.92,381.92Zm20.35,2.84,2.57-22.61c-1.89-5.36-4.51-7.46-7.09-7.46-6.34,0-11.31,12.3-11.31,26,0,9.57,2.51,14,6.34,14C3459.81,394.64,3463.24,391.28,3466.27,384.76Z"/>
        <path class="cls-10" d="M3486.33,386.86a55.37,55.37,0,0,1,.45-6.62l2.75-24.6h-8.06l.63-6,8.34-.52,2.4-16.4h3.66l-1.83,16.4h13.66l-.75,6.52h-13.71l-2.8,24.81a36.13,36.13,0,0,0-.29,4.62c0,6.52,2,9.57,5.15,9.57,2.74,0,5.2-1.58,7.2-3.68l1.43,5.89a13.14,13.14,0,0,1-9.78,4.62C3489,401.47,3486.33,395.59,3486.33,386.86Z"/>
        <path class="cls-10" d="M3514.5,381.92c0-18.29,6.8-34.06,15.26-34.06,3.94,0,6.91,3.05,8.45,7.67h.23l1.15-6.41h3.6l-5.6,51.09H3534l.4-7.78h-.23c-2.92,5.47-6.57,9-10.17,9C3518.27,401.47,3514.5,394.64,3514.5,381.92Zm20.34,2.84,2.57-22.61c-1.88-5.36-4.51-7.46-7.08-7.46-6.34,0-11.32,12.3-11.32,26,0,9.57,2.52,14,6.35,14C3528.39,394.64,3531.81,391.28,3534.84,384.76Z"/>
      </g>
    </g>
  </g>
</svg>
