<svg id="main" xmlns="http://www.w3.org/2000/svg" viewBox="0 0 2000 1200">
  <defs>
  <link xmlns="http://www.w3.org/1999/xhtml" rel="stylesheet" href="{% styles/svg-styles.css %}" type="text/css" />
  </defs>
  <g id="background">
    <rect class="cls-1" width="2000" height="1200"/>
  </g>
  <g id="clue-type">
    <g>
      <g>
        <path class="econ" d="M1608.32,591.47c0-83.49-49.84-150.78-148.28-150.78-83.5,0-163.25,61.06-163.25,163.24,0,103.43,76,163.25,174.46,163.25,38.63,0,87.23-12.47,124.61-36.14L1561,667.49c-27.41,12.46-49.84,18.69-74.77,18.69-45.27,0-72.64-14.79-82.16-49.85H1604C1605.21,628.86,1608.32,610.16,1608.32,591.47Zm-144.55-69.78c29.17,0,45.27,15.69,49.77,44.86H1404.62C1413,536.14,1433.23,521.69,1463.77,521.69Z"/>
      </g>
      <g>
        <path class="use" d="M1169.07,648.79c-16.2,22.43-28.66,27.42-46.73,27.42-28,0-35.51-15-35.51-49.85V448.17H979.66v191.9c0,77.26,28.66,127.11,98.45,127.11,43.61,0,74.76-18.7,100.93-48.6h2.5L1189,759.7h87.23V448.17H1169.07Z"/>
      </g>
      <g>
        <path class="land" d="M905.53,681.19c-21.81,0-46.73-10-46.73-46.1v-309H658.17v83.49h93.46V631.35c0,81,42.37,135.83,125.24,135.83,40.5,0,62.93-6.23,96.57-16.2l-23.05-78.51C932.32,678.7,918.61,681.19,905.53,681.19Z"/>
      </g>
      <g>
        <path class="clue" d="M674.38,655c-21.19,13.09-46.11,26.17-76.64,26.17-43.61,0-75.39-29.9-75.39-77.26s32.4-77.26,79.13-77.26c19.94,0,39.87,5.61,62.93,21.19L713,481.81c-26.17-24.92-69.16-41.12-117.76-41.12-96.58,0-182.56,59.81-182.56,163.24s76,163.25,174.46,163.25c41.12,0,91-13.09,129.59-44.86Z"/>
      </g>
    </g>
  </g>
  <g id="brackets">
    <path id="right" class="cls-3" d="M1607.17,810.84H1635c55.61,0,68.15-14.17,68.15-49.61,0-33.25-3.28-61.6-3.28-98.67,0-35.44,11.45-52.89,49.07-59.43V601c-37.62-6.54-49.07-24-49.07-59.42,0-33.8,3.28-67.6,3.28-98.68,0-35.43-12.54-49.61-68.15-49.61h-27.8V367.62h33.25c68.69,0,100.31,16.36,100.31,72.51,0,37.61-4.9,70.87-4.9,105.22,0,21.26,14.71,42,79,42.52v28.35c-64.33.54-79,21.26-79,42.52,0,36.53,4.9,65.42,4.9,105.22,0,56.15-31.62,72.5-100.31,72.5h-33.25Z"/>
    <path id="left" class="cls-3" d="M290.34,764c0-39.8,5.45-68.69,5.45-105.22,0-21.26-14.72-42-79.05-42.52V587.87c64.33-.55,79.05-21.26,79.05-42.53,0-34.34-5.45-67.6-5.45-105.21,0-56.15,32.71-72.51,100.85-72.51H425v25.62H396.65c-55.61,0-67.6,14.18-67.6,49.61,0,31.08,3.27,64.88,3.27,98.68,0,35.43-12,52.88-49.61,59.42v2.18c37.61,6.54,49.61,24,49.61,59.43,0,37.07-3.27,65.42-3.27,98.67,0,35.44,12,49.61,67.6,49.61H425v25.62H391.19C323.05,836.46,290.34,820.11,290.34,764Z"/>
  </g>
  <g id="research">
    <path class="cls-4" d="M800.36,867C794.05,867,789,871.94,789,879s5,11.91,11.36,11.91,11.35-4.76,11.35-11.91S806.66,867,800.36,867Z"/>
    <path class="cls-4" d="M800.36,816.85c-6.31,0-11.36,4.9-11.36,11.91s5,11.92,11.36,11.92,11.35-4.77,11.35-11.92S806.66,816.85,800.36,816.85Z"/>
    <path class="cls-4" d="M917.27,823.15c0-19.2-13.6-25.93-32.24-25.93H856.29v92h11.92V850.35h16.27l22.14,38.83h13.31L896.59,849C909,846,917.27,837.44,917.27,823.15Zm-49.06-16.4h15.14c14.29,0,22.14,4.35,22.14,16.4,0,11.78-7.85,17.67-22.14,17.67H868.21Z"/>
    <polygon class="cls-4" points="954.28 845.86 992.41 845.86 992.41 835.91 954.28 835.91 954.28 807.17 999.42 807.17 999.42 797.22 942.5 797.22 942.5 889.18 1000.82 889.18 1000.82 879.23 954.28 879.23 954.28 845.86"/>
    <path class="cls-4" d="M1065.59,840.12l-12.9-5.75c-7.85-3.09-16.4-6.31-16.4-15.14,0-8.27,7.15-13.32,17.8-13.32a32.31,32.31,0,0,1,22.57,8.55l6.17-7.57a40.11,40.11,0,0,0-28.32-11.35c-17.52,0-30.14,10.37-30.14,24.39,0,13.6,10.66,20.05,19.77,23.69l13.32,5.89c9.25,3.92,16.4,6.73,16.4,16.54,0,8.41-7.29,14.44-19.91,14.44A38.65,38.65,0,0,1,1027,869.13l-7,8.13a46.69,46.69,0,0,0,33.36,13.6c20.19,0,32.52-11.63,32.52-26.21C1085.91,851.05,1076.94,844.6,1065.59,840.12Z"/>
    <polygon class="cls-4" points="1122.5 845.86 1160.63 845.86 1160.63 835.91 1122.5 835.91 1122.5 807.17 1167.64 807.17 1167.64 797.22 1110.73 797.22 1110.73 889.18 1169.04 889.18 1169.04 879.23 1122.5 879.23 1122.5 845.86"/>
    <path class="cls-4" d="M1214.18,797.22l-31,92h12.06l8.76-27.9h33.37l8.61,27.9h12.62l-31-92Zm20.27,54.53H1207l4.36-13.88c3.22-10.23,6.17-20.32,9.11-31h.56c2.81,10.66,5.89,20.75,9.11,31Z"/>
    <path class="cls-4" d="M1337.83,823.15c0-19.2-13.6-25.93-32.25-25.93h-28.73v92h11.91V850.35H1305l22.13,38.83h13.32L1317.15,849C1329.59,846,1337.83,837.44,1337.83,823.15Zm-49.07-16.4h15.14c14.3,0,22.15,4.35,22.15,16.4,0,11.78-7.85,17.67-22.15,17.67h-15.14Z"/>
    <path class="cls-4" d="M1397.4,880.49c-17.52,0-29-14.44-29-37.57,0-22.85,11.49-37,29-37,7.71,0,13.74,3.22,18.51,8.27l6.73-7.43a34.46,34.46,0,0,0-25.24-11.21c-24,0-41.21,18.08-41.21,47.66,0,30,17.38,47.66,40.09,47.66,12.2,0,21.31-4.9,28.46-13.32l-6.73-7.15C1412.26,876.84,1405.81,880.49,1397.4,880.49Z"/>
    <polygon class="cls-4" points="1492.31 835.63 1454.18 835.63 1454.18 797.22 1442.26 797.22 1442.26 889.18 1454.18 889.18 1454.18 846 1492.31 846 1492.31 889.18 1504.22 889.18 1504.22 797.22 1492.31 797.22 1492.31 835.63"/>
    <path class="cls-4" d="M1557.36,840.68c6.3,0,11.35-4.77,11.35-11.92s-5-11.91-11.35-11.91-11.36,4.9-11.36,11.91S1551.05,840.68,1557.36,840.68Z"/>
    <path class="cls-4" d="M1558.2,867.45c-6,0-11.22,3.79-11.22,10.66s4.91,10.51,10.94,10.51a14,14,0,0,0,2.5-.23c-.27,11-6.14,18.21-17.64,23.36l3.36,7.29c15.42-5.75,24.67-17.24,24.67-33.65C1570.81,874.32,1566.47,867.45,1558.2,867.45Z"/>
  </g>
  <g id="interactive-data">
    <path class="cls-5" d="M955.56,390c-2.52,0-4.23-2.21-4.23-7.57a22.77,22.77,0,0,1,.22-3.26l4.12-34.7H941.15l-.74,6.52h10.17l-3.37,27.34a52,52,0,0,0-.4,5.67c0,8.41,3,12.83,7.49,12.83,3,0,5.26-1.37,7.6-3.37l-1-6.09C958.87,389,957.27,390,955.56,390Z"/>
    <path class="cls-5" d="M954,333.68c2.17,0,4-3.15,4-7.25,0-3.57-1.31-5.68-3.31-5.68s-4,3.37-4,7.26C950.75,331.69,952.18,333.68,954,333.68Z"/>
    <path class="cls-5" d="M991.9,343.25c-5,0-9.09,5.57-12.46,11.67h-.23l.75-10.41H976.3l-5.49,51.1h4.4l3.6-33c3.78-7.78,7.6-12.31,11.32-12.31,2.86,0,4.4,2.74,4.4,7.78a64,64,0,0,1-.52,7.15l-3.31,30.39h4.4l3.43-31.23A82.74,82.74,0,0,0,999,356C999,348.3,996.81,343.25,991.9,343.25Z"/>
    <path class="cls-5" d="M1022.3,328.11h-3.66l-2.4,16.4-8.34.53-.63,6h8.06l-2.74,24.6a53.6,53.6,0,0,0-.46,6.63c0,8.72,2.63,14.61,8.46,14.61a13.11,13.11,0,0,0,9.77-4.63l-1.43-5.88c-2,2.1-4.46,3.68-7.2,3.68-3.14,0-5.14-3.05-5.14-9.57a36,36,0,0,1,.28-4.63l2.8-24.81h13.72l.74-6.52h-13.66Z"/>
    <path class="cls-5" d="M1056.76,343.25c-8.4,0-15.83,13.14-15.83,31.54,0,14.3,4.63,22.08,11.83,22.08,4.86,0,9.2-3.47,12-7.57l-1.66-5.47c-2.57,3.79-5.83,6.63-9.48,6.63-5,0-8.35-5.79-8.35-16.09,0-.79,0-1.55.06-2.31h21.26a58.31,58.31,0,0,0,.74-9.15C1067.33,351.56,1063.56,343.25,1056.76,343.25Zm6.3,22.5H1046c1.73-9.91,6.3-16.09,10.54-16.09s6.69,4.95,6.69,12.94C1063.22,363.63,1063.16,364.71,1063.06,365.75Z"/>
    <path class="cls-5" d="M1097.79,343.25c-4.86,0-9.31,7.15-12.46,15.88h-.23l1.21-14.62-3.66-.1-5.49,51.2h4.4l2.92-26.5c3.77-11,8.23-18.5,12.51-18.5a5.78,5.78,0,0,1,4.63,2.21l1.77-6.94A6.8,6.8,0,0,0,1097.79,343.25Z"/>
    <path class="cls-5" d="M1132.82,350.93h-.23c-1.54-4.63-4.51-7.68-8.45-7.68-8.46,0-15.26,15.77-15.26,34.06,0,12.73,3.77,19.56,9.48,19.56,3.6,0,7.26-3.58,10.18-9h.22l-.4,7.78h3.6l5.6-51.1H1134Zm-3.6,29.22c-3,6.52-6.46,9.89-9.48,9.89-3.83,0-6.35-4.42-6.35-14,0-13.66,5-26,11.32-26,2.57,0,5.2,2.11,7.08,7.47Z"/>
    <path class="cls-5" d="M1160.77,343.25c-8.69,0-16.75,12.51-16.75,31.12,0,14.93,5.55,22.5,12.8,22.5,4.18,0,8.29-3.37,11.2-8.31l-1.77-5.57c-2.57,4.21-5.6,7.05-8.85,7.05-5.15,0-8.92-5.47-8.92-16.62,0-13,6-23.34,11.72-23.34,3.6,0,6.17,2.32,8.17,6.94l2.85-4.62C1169.22,347.56,1165.62,343.25,1160.77,343.25Z"/>
    <path class="cls-5" d="M1193.74,328.11h-3.66l-2.4,16.4-8.34.53-.63,6h8.06l-2.74,24.6a53.6,53.6,0,0,0-.46,6.63c0,8.72,2.63,14.61,8.46,14.61a13.11,13.11,0,0,0,9.77-4.63l-1.43-5.88c-2,2.1-4.46,3.68-7.2,3.68-3.14,0-5.14-3.05-5.14-9.57a36,36,0,0,1,.28-4.63l2.8-24.81h13.72l.74-6.52h-13.66Z"/>
    <path class="cls-5" d="M1229.86,390c-2.52,0-4.23-2.21-4.23-7.57a21.49,21.49,0,0,1,.23-3.26l4.11-34.7h-14.51l-.75,6.52h10.17l-3.37,27.34a52,52,0,0,0-.4,5.67c0,8.41,3,12.83,7.49,12.83,3,0,5.26-1.37,7.6-3.37l-1-6.09C1233.17,389,1231.57,390,1229.86,390Z"/>
    <path class="cls-5" d="M1228.31,333.68c2.17,0,4-3.15,4-7.25,0-3.57-1.31-5.68-3.31-5.68s-3.94,3.37-3.94,7.26C1225.06,331.69,1226.48,333.68,1228.31,333.68Z"/>
    <path class="cls-5" d="M1262.32,374.06c-1.72,5.25-3.32,10.4-4.63,15.13h-.23c-.52-4.83-1-10-1.6-15l-3.49-29.65H1248l6.28,51.1h5.21l16.8-51.1h-4.52Z"/>
    <path class="cls-5" d="M1296.77,343.25c-8.4,0-15.82,13.14-15.82,31.54,0,14.3,4.62,22.08,11.82,22.08,4.86,0,9.2-3.47,12-7.57l-1.65-5.47c-2.57,3.79-5.83,6.63-9.49,6.63-5,0-8.34-5.79-8.34-16.09,0-.79,0-1.55,0-2.31h21.26a58,58,0,0,0,.75-9.15C1307.35,351.56,1303.57,343.25,1296.77,343.25Zm6.31,22.5H1286c1.73-9.91,6.29-16.09,10.54-16.09s6.68,4.95,6.68,12.94C1303.23,363.63,1303.18,364.71,1303.08,365.75Z"/>
    <rect class="cls-5" x="1356.78" y="316.76" width="4" height="105.13"/>
    <path class="cls-5" d="M1429.35,340.73l-1,10h-.17c-1.6-4.53-4.4-7.47-8.34-7.47-8.46,0-15.26,15.77-15.26,34.06,0,12.73,3.77,19.56,9.49,19.56,3.6,0,7.25-3.58,10.17-9h.23l-.4,7.78h3.6l8.22-74.86h-4.4Zm-4.4,39.42c-3,6.52-6.45,9.89-9.48,9.89-3.83,0-6.35-4.42-6.35-14,0-13.66,5-26,11.32-26,2.57,0,5.2,2.11,7.08,7.47Z"/>
    <path class="cls-5" d="M1462.84,350.93h-.23c-1.54-4.63-4.51-7.68-8.46-7.68-8.45,0-15.25,15.77-15.25,34.06,0,12.73,3.77,19.56,9.48,19.56,3.6,0,7.26-3.58,10.17-9h.23l-.4,7.78h3.6l5.6-51.1H1464Zm-3.6,29.22c-3,6.52-6.46,9.89-9.49,9.89-3.82,0-6.34-4.42-6.34-14,0-13.66,5-26,11.32-26,2.57,0,5.2,2.11,7.08,7.47Z"/>
    <path class="cls-5" d="M1489.47,328.11h-3.66l-2.4,16.4-8.34.53-.63,6h8.06l-2.74,24.6a53.6,53.6,0,0,0-.46,6.63c0,8.72,2.63,14.61,8.46,14.61a13.11,13.11,0,0,0,9.77-4.63l-1.43-5.88c-2,2.1-4.46,3.68-7.2,3.68-3.14,0-5.14-3.05-5.14-9.57a36,36,0,0,1,.28-4.63l2.8-24.81h13.72l.74-6.52h-13.66Z"/>
    <path class="cls-5" d="M1532.56,344.51l-1.14,6.42h-.23c-1.55-4.63-4.52-7.68-8.46-7.68-8.46,0-15.26,15.77-15.26,34.06,0,12.73,3.77,19.56,9.49,19.56,3.6,0,7.26-3.58,10.17-9h.23l-.4,7.78h3.6l5.6-51.1Zm-4.74,35.64c-3,6.52-6.46,9.89-9.49,9.89-3.83,0-6.34-4.42-6.34-14,0-13.66,5-26,11.31-26,2.57,0,5.2,2.11,7.09,7.47Z"/>
  </g>
  <script type="application/javascript" href="{% scripts/svg-app.js %}"/>
</svg>
