<svg id="master-logo" xmlns="http://www.w3.org/2000/svg" viewBox="0 0 2000 1200">
  <defs>
    <style>
      .cls-1 {
        fill: #404040;
      }

      .cls-2 {
        fill: #2c689c;
      }

      .cls-3 {
        fill: #b24745;
        stroke: #000;
        stroke-miterlimit: 10;
        stroke-width: 2px;
      }

      .cls-4 {
        fill: #917543;
      }
    </style>
  </defs>
  <g id="context-dark">
    <g id="main-blue">
      <g id="Layer_41_copy_3" data-name="Layer 41 copy 3">
        <rect class="cls-1" width="2000" height="1200"/>
      </g>
      <g id="clue-type">
        <g>
          <path class="cls-2" d="M773.86,608.82V387H680.4V303.52H881v309c0,36.14,24.92,46.1,46.73,46.1,13.08,0,26.79-2.49,44.86-8.72l23,78.51c-33.64,10-56.07,16.2-96.57,16.2C816.23,744.65,773.86,689.82,773.86,608.82Z"/>
          <path class="cls-2" d="M1001.89,617.54V425.64h107.17V603.83c0,34.9,7.48,49.85,35.52,49.85,18.06,0,30.53-5,46.73-27.42V425.64h107.16V737.17h-87.23l-7.47-41.12h-2.5c-26.16,29.9-57.32,48.6-100.93,48.6C1030.56,744.65,1001.89,694.8,1001.89,617.54Z"/>
          <path class="cls-2" d="M1319,581.4c0-102.18,79.76-163.24,163.25-163.24,98.44,0,148.28,67.29,148.28,150.78,0,18.69-3.11,37.39-4.36,44.86H1400V544h152l-15,18.69c0-41.12-16.2-63.55-51.1-63.55-41.12,0-63.55,26.17-63.55,82.24,0,58.57,28.66,82.25,86,82.25,24.93,0,47.36-6.23,74.77-18.69l34.89,63.55c-37.38,23.68-86,36.14-124.61,36.14C1395,744.65,1319,684.83,1319,581.4Z"/>
        </g>
        <path class="cls-2" d="M434.92,581.4c0-103.42,86-163.24,182.56-163.24,48.6,0,91.59,16.2,117.76,41.12l-48.6,66.05c-23.06-15.58-43-21.19-62.93-21.19-46.73,0-79.13,29.91-79.13,77.26s31.78,77.26,75.39,77.26c30.53,0,55.45-13.08,76.64-26.16L739,699.79c-38.63,31.77-88.48,44.86-129.6,44.86C510.93,744.65,434.92,684.83,434.92,581.4Z"/>
      </g>
      <g id="brackets">
        <path class="cls-3" d="M1629.4,788.31h27.8c55.61,0,68.15-14.17,68.15-49.61,0-33.25-3.27-61.6-3.27-98.67,0-35.44,11.44-52.88,49.06-59.43v-2.18c-37.62-6.54-49.06-24-49.06-59.42,0-33.8,3.27-67.6,3.27-98.68,0-35.43-12.54-49.61-68.15-49.61h-27.8V345.09h33.25c68.69,0,100.31,16.36,100.31,72.51,0,37.61-4.9,70.87-4.9,105.22,0,21.26,14.72,42,79,42.52v28.35c-64.33.54-79,21.26-79,42.52,0,36.53,4.9,65.42,4.9,105.22,0,56.15-31.62,72.5-100.31,72.5H1629.4Z"/>
        <path class="cls-3" d="M312.57,741.43c0-39.8,5.45-68.69,5.45-105.22,0-21.26-14.72-42-79-42.52V565.34c64.33-.55,79-21.26,79-42.52,0-34.35-5.45-67.61-5.45-105.22,0-56.15,32.71-72.51,100.86-72.51h33.8v25.62H418.88c-55.61,0-67.6,14.18-67.6,49.61,0,31.08,3.27,64.88,3.27,98.68,0,35.44-12,52.88-49.61,59.42v2.18c37.61,6.54,49.61,24,49.61,59.43,0,37.07-3.27,65.42-3.27,98.67,0,35.44,12,49.61,67.6,49.61h28.35v25.62h-33.8C345.28,813.93,312.57,797.58,312.57,741.43Z"/>
      </g>
      <g id="research">
        <g>
          <path class="cls-4" d="M811.23,806.23c0-7,5-11.91,11.36-11.91s11.35,4.9,11.35,11.91-5,11.92-11.35,11.92S811.23,813.38,811.23,806.23Zm0,50.19c0-7,5-11.92,11.36-11.92s11.35,4.91,11.35,11.92-5,11.91-11.35,11.91S811.23,863.57,811.23,856.42Z"/>
          <path class="cls-4" d="M878.52,774.69h28.74c18.64,0,32.24,6.73,32.24,25.93,0,18.37-13.6,27.2-32.24,27.2H890.44v38.83H878.52Zm27.06,43.6c14.3,0,22.15-5.89,22.15-17.67,0-12-7.85-16.4-22.15-16.4H890.44v34.07Zm8.55.14,28,48.22H928.85l-24-42Z"/>
          <path class="cls-4" d="M964.74,774.69h56.91v9.95H976.51v28.74h38.13v10H976.51V856.7h46.54v9.95H964.74Z"/>
          <path class="cls-4" d="M1042.26,854.73l7-8.13A38.67,38.67,0,0,0,1076.18,858c12.62,0,19.91-6,19.91-14.44,0-9.81-7.15-12.62-16.4-16.54l-13.32-5.89c-9.11-3.64-19.77-10.09-19.77-23.69,0-14,12.62-24.39,30.14-24.39a40.11,40.11,0,0,1,28.32,11.35l-6.17,7.57a32.35,32.35,0,0,0-22.57-8.55c-10.65,0-17.8,5-17.8,13.32,0,8.83,8.55,12,16.4,15.14l12.9,5.75c11.35,4.48,20.32,10.93,20.32,24.53,0,14.58-12.33,26.21-32.52,26.21A46.69,46.69,0,0,1,1042.26,854.73Z"/>
          <path class="cls-4" d="M1133,774.69h56.91v9.95h-45.14v28.74h38.13v10h-38.13V856.7h46.54v9.95H1133Z"/>
          <path class="cls-4" d="M1236.41,774.69h13.46l31,92h-12.61l-15.85-51.31c-3.22-10.23-6.3-20.32-9.11-31h-.56c-2.94,10.66-5.89,20.75-9.11,31l-16.12,51.31h-12.06Zm-14.58,54.53H1264v9.53h-42.2Z"/>
          <path class="cls-4" d="M1299.08,774.69h28.73c18.65,0,32.25,6.73,32.25,25.93,0,18.37-13.6,27.2-32.25,27.2H1311v38.83h-11.91Zm27.05,43.6c14.3,0,22.15-5.89,22.15-17.67,0-12-7.85-16.4-22.15-16.4H1311v34.07Zm8.55.14,28,48.22H1349.4l-24-42Z"/>
          <path class="cls-4" d="M1378.42,820.67c0-29.58,17.24-47.66,41.22-47.66a34.45,34.45,0,0,1,25.23,11.21l-6.73,7.43c-4.77-5-10.79-8.27-18.5-8.27-17.53,0-29,14.16-29,37,0,23.13,11.49,37.57,29,37.57,8.41,0,14.85-3.65,20.6-10.09L1447,855c-7.15,8.42-16.26,13.32-28.46,13.32C1395.8,868.33,1378.42,850.67,1378.42,820.67Z"/>
          <path class="cls-4" d="M1464.5,774.69h11.91V813.1h38.13V774.69h11.92v92h-11.92V823.47h-38.13v43.18H1464.5Z"/>
          <path class="cls-4" d="M1565,889.22c11.91-5.33,17.8-12.9,17.66-24.53l-2.52-12.9,7.85,11.08a9.91,9.91,0,0,1-7.85,3.22c-6,0-10.94-3.51-10.94-10.51s5.19-10.66,11.22-10.66c8.27,0,12.61,6.87,12.61,18,0,16.4-9.25,27.89-24.67,33.64Zm3.22-83c0-7,5-11.91,11.36-11.91s11.35,4.9,11.35,11.91-5,11.92-11.35,11.92S1568.23,813.38,1568.23,806.23Z"/>
        </g>
      </g>
      <g id="interactive-data">
        <path class="cls-4" d="M969,361.51a52,52,0,0,1,.4-5.67l3.37-27.34H962.64l.75-6.52H977.9l-4.11,34.7a21.49,21.49,0,0,0-.23,3.26c0,5.36,1.71,7.57,4.23,7.57,1.71,0,3.31-1.06,5.31-2.63l1,6.09c-2.34,2-4.57,3.37-7.6,3.37C972.07,374.34,969,369.92,969,361.51Zm4-56c0-3.89,1.82-7.26,3.94-7.26s3.31,2.11,3.31,5.68c0,4.1-1.83,7.25-4,7.25C974.41,311.15,973,309.16,973,305.48Z"/>
        <path class="cls-4" d="M998.53,322h3.66l-.75,10.41h.23c3.37-6.1,7.49-11.67,12.46-11.67s7.14,5,7.14,12.72a82.74,82.74,0,0,1-.51,8.41l-3.43,31.23h-4.4l3.32-30.39a66.37,66.37,0,0,0,.51-7.15c0-5-1.54-7.77-4.4-7.77-3.71,0-7.54,4.52-11.32,12.3l-3.6,33H993Z"/>
        <path class="cls-4" d="M1034.36,359.73a53.6,53.6,0,0,1,.46-6.63l2.74-24.6h-8.06l.63-6,8.35-.53,2.4-16.4h3.65L1042.7,322h13.66l-.74,6.52H1041.9l-2.8,24.81a38,38,0,0,0-.28,4.63c0,6.52,2,9.57,5.14,9.57,2.74,0,5.2-1.58,7.2-3.68l1.43,5.88a13.11,13.11,0,0,1-9.77,4.63C1037,374.34,1034.36,368.45,1034.36,359.73Z"/>
        <path class="cls-4" d="M1063.16,352.26c0-18.4,7.43-31.54,15.83-31.54,6.8,0,10.57,8.31,10.57,19.66a58.31,58.31,0,0,1-.74,9.15h-22.29l.58-6.31h19.82l-1.82,1.58a33.12,33.12,0,0,0,.34-4.73c0-8-2.57-12.94-6.69-12.94-5.37,0-11.25,9.89-11.25,24.71,0,10.3,3.31,16.09,8.34,16.09,3.66,0,6.91-2.84,9.48-6.63l1.66,5.47c-2.8,4.1-7.14,7.57-12,7.57C1067.79,374.34,1063.16,366.56,1063.16,352.26Z"/>
        <path class="cls-4" d="M1104.88,321.88l3.66.1-1.2,14.62h.22c3.15-8.73,7.61-15.88,12.46-15.88a6.8,6.8,0,0,1,5.6,2.63l-1.77,6.94a5.78,5.78,0,0,0-4.63-2.21c-4.28,0-8.74,7.46-12.51,18.5l-2.92,26.5h-4.4Z"/>
        <path class="cls-4" d="M1131.11,354.79c0-18.3,6.8-34.07,15.26-34.07,3.94,0,6.91,3,8.45,7.68h.23l1.15-6.42h3.6l-5.6,51.1h-3.6l.4-7.78h-.23c-2.92,5.46-6.57,9-10.17,9C1134.88,374.34,1131.11,367.51,1131.11,354.79Zm20.34,2.83L1154,335c-1.88-5.36-4.51-7.47-7.08-7.47-6.34,0-11.32,12.31-11.32,26,0,9.57,2.52,14,6.35,14C1145,367.51,1148.42,364.14,1151.45,357.62Z"/>
        <path class="cls-4" d="M1166.25,351.84c0-18.61,8.06-31.12,16.75-31.12,4.85,0,8.46,4.31,10.46,9.15l-2.86,4.62c-2-4.62-4.57-6.94-8.17-6.94-5.72,0-11.72,10.31-11.72,23.34,0,11.15,3.77,16.62,8.92,16.62,3.25,0,6.28-2.84,8.85-7.05l1.77,5.57c-2.91,4.94-7,8.31-11.2,8.31C1171.8,374.34,1166.25,366.77,1166.25,351.84Z"/>
        <path class="cls-4" d="M1205.8,359.73a53.6,53.6,0,0,1,.46-6.63l2.74-24.6h-8.06l.63-6,8.34-.53,2.4-16.4H1216l-1.83,16.4h13.66l-.74,6.52h-13.72l-2.8,24.81a36.05,36.05,0,0,0-.28,4.63c0,6.52,2,9.57,5.14,9.57,2.74,0,5.2-1.58,7.2-3.68l1.43,5.88a13.11,13.11,0,0,1-9.77,4.63C1208.43,374.34,1205.8,368.45,1205.8,359.73Z"/>
        <path class="cls-4" d="M1243.34,361.51a54.62,54.62,0,0,1,.4-5.67l3.38-27.34h-10.18l.75-6.52h14.51l-4.11,34.7a22.87,22.87,0,0,0-.23,3.26c0,5.36,1.71,7.57,4.23,7.57,1.71,0,3.31-1.06,5.31-2.63l1,6.09c-2.34,2-4.57,3.37-7.6,3.37C1246.37,374.34,1243.34,369.92,1243.34,361.51Zm4-56c0-3.89,1.83-7.26,3.94-7.26s3.31,2.11,3.31,5.68c0,4.1-1.82,7.25-4,7.25C1248.72,311.15,1247.29,309.16,1247.29,305.48Z"/>
        <path class="cls-4" d="M1270.26,322h4.34l3.49,29.65c.57,5.05,1.08,10.2,1.6,15h.23c1.31-4.73,2.91-9.88,4.63-15.13L1294,322h4.52l-16.8,51.1h-5.2Z"/>
        <path class="cls-4" d="M1303.18,352.26c0-18.4,7.42-31.54,15.83-31.54,6.8,0,10.57,8.31,10.57,19.66a58,58,0,0,1-.75,9.15h-22.28l.57-6.31H1327l-1.83,1.58a31.72,31.72,0,0,0,.34-4.73c0-8-2.57-12.94-6.68-12.94-5.37,0-11.26,9.89-11.26,24.71,0,10.3,3.31,16.09,8.34,16.09,3.66,0,6.92-2.84,9.49-6.63l1.66,5.47c-2.8,4.1-7.15,7.57-12,7.57C1307.8,374.34,1303.18,366.56,1303.18,352.26Z"/>
        <path class="cls-4" d="M1379,294.23h4V399.36h-4Z"/>
        <path class="cls-4" d="M1426.84,354.79c0-18.3,6.8-34.07,15.26-34.07,3.94,0,6.74,2.95,8.34,7.47h.17l1-10,2.17-20h4.41l-8.23,74.86h-3.6l.4-7.78h-.23c-2.92,5.46-6.57,9-10.17,9C1430.61,374.34,1426.84,367.51,1426.84,354.79Zm20.34,2.83,2.57-22.6c-1.88-5.36-4.51-7.47-7.08-7.47-6.34,0-11.32,12.31-11.32,26,0,9.57,2.52,14,6.35,14C1440.73,367.51,1444.15,364.14,1447.18,357.62Z"/>
        <path class="cls-4" d="M1461.13,354.79c0-18.3,6.8-34.07,15.26-34.07,3.94,0,6.91,3,8.45,7.68h.23l1.14-6.42h3.6l-5.6,51.1h-3.6l.4-7.78h-.22c-2.92,5.46-6.58,9-10.18,9C1464.9,374.34,1461.13,367.51,1461.13,354.79Zm20.34,2.83L1484,335c-1.88-5.36-4.51-7.47-7.08-7.47-6.35,0-11.32,12.31-11.32,26,0,9.57,2.52,14,6.35,14C1475,367.51,1478.44,364.14,1481.47,357.62Z"/>
        <path class="cls-4" d="M1501.53,359.73a53.6,53.6,0,0,1,.46-6.63l2.74-24.6h-8.06l.63-6,8.34-.53,2.4-16.4h3.66l-1.83,16.4h13.66l-.74,6.52h-13.72l-2.8,24.81a36.05,36.05,0,0,0-.28,4.63c0,6.52,2,9.57,5.14,9.57,2.74,0,5.2-1.58,7.2-3.68l1.43,5.88a13.11,13.11,0,0,1-9.77,4.63C1504.16,374.34,1501.53,368.45,1501.53,359.73Z"/>
        <path class="cls-4" d="M1529.7,354.79c0-18.3,6.8-34.07,15.26-34.07,3.94,0,6.92,3,8.46,7.68h.23l1.14-6.42h3.6l-5.6,51.1h-3.6l.4-7.78h-.23c-2.91,5.46-6.57,9-10.17,9C1533.47,374.34,1529.7,367.51,1529.7,354.79Zm20.35,2.83,2.57-22.6c-1.89-5.36-4.52-7.47-7.09-7.47-6.34,0-11.31,12.31-11.31,26,0,9.57,2.51,14,6.34,14C1543.59,367.51,1547,364.14,1550.05,357.62Z"/>
      </g>
    </g>
  </g>
</svg>
