<svg id="master-logo" xmlns="http://www.w3.org/2000/svg" viewBox="0 0 2000 1200">
  <defs>
    <style>
      .cls-1 {
        fill: #a5a5a5;
      }

      .cls-2 {
        fill: #2b6597;
      }

      .cls-3 {
        fill: #8f3d58;
        stroke: #000;
        stroke-miterlimit: 10;
        stroke-width: 2px;
      }

      .cls-4 {
        fill: #5a6722;
      }
    </style>
  </defs>
  <g id="context-light">
    <g id="main-blue-2" data-name="main-blue">
      <g id="Layer_41" data-name="Layer 41">
        <rect class="cls-1" width="2000" height="1200"/>
      </g>
      <g id="clue-type-3" data-name="clue-type">
        <g>
          <path class="cls-2" d="M751.63,631.35V409.54H658.17V326.05H858.8v309c0,36.13,24.92,46.1,46.73,46.1,13.08,0,26.79-2.49,44.86-8.72L973.44,751c-33.64,10-56.07,16.2-96.57,16.2C794,767.18,751.63,712.35,751.63,631.35Z"/>
          <path class="cls-2" d="M979.66,640.07V448.17h107.17V626.36c0,34.89,7.48,49.85,35.51,49.85,18.07,0,30.53-5,46.73-27.42V448.17h107.17V759.7H1189l-7.47-41.12H1179c-26.17,29.9-57.32,48.6-100.93,48.6C1008.32,767.18,979.66,717.33,979.66,640.07Z"/>
          <path class="cls-2" d="M1296.79,603.93c0-102.18,79.75-163.24,163.25-163.24,98.44,0,148.28,67.29,148.28,150.78,0,18.69-3.11,37.39-4.36,44.86H1377.79V566.55h152l-15,18.69c0-41.12-16.19-63.55-51.09-63.55-41.12,0-63.55,26.17-63.55,82.24,0,58.57,28.66,82.25,86,82.25,24.93,0,47.36-6.23,74.77-18.69L1595.86,731c-37.38,23.67-86,36.14-124.61,36.14C1372.81,767.18,1296.79,707.36,1296.79,603.93Z"/>
        </g>
        <path class="cls-2" d="M412.69,603.93c0-103.43,86-163.24,182.56-163.24,48.6,0,91.59,16.2,117.76,41.12l-48.6,66.05c-23.06-15.58-43-21.19-62.93-21.19-46.73,0-79.13,29.91-79.13,77.26s31.78,77.26,75.39,77.26c30.53,0,55.45-13.08,76.64-26.17l42.36,67.3c-38.63,31.77-88.47,44.86-129.59,44.86C488.7,767.18,412.69,707.36,412.69,603.93Z"/>
      </g>
      <g id="brackets-3" data-name="brackets">
        <path class="cls-3" d="M1607.17,810.84H1635c55.61,0,68.15-14.17,68.15-49.61,0-33.25-3.28-61.6-3.28-98.67,0-35.44,11.45-52.89,49.07-59.43V601c-37.62-6.54-49.07-24-49.07-59.42,0-33.8,3.28-67.6,3.28-98.68,0-35.43-12.54-49.61-68.15-49.61h-27.8V367.62h33.25c68.69,0,100.31,16.36,100.31,72.51,0,37.61-4.9,70.87-4.9,105.22,0,21.26,14.71,42,79,42.52v28.35c-64.33.54-79,21.26-79,42.52,0,36.53,4.9,65.42,4.9,105.22,0,56.15-31.62,72.5-100.31,72.5h-33.25Z"/>
        <path class="cls-3" d="M290.34,764c0-39.8,5.45-68.69,5.45-105.22,0-21.26-14.72-42-79.05-42.52V587.87c64.33-.55,79.05-21.26,79.05-42.53,0-34.34-5.45-67.6-5.45-105.21,0-56.15,32.71-72.51,100.85-72.51H425v25.62H396.65c-55.61,0-67.6,14.18-67.6,49.61,0,31.08,3.27,64.88,3.27,98.68,0,35.43-12,52.88-49.61,59.42v2.18c37.61,6.54,49.61,24,49.61,59.43,0,37.07-3.27,65.42-3.27,98.67,0,35.44,12,49.61,67.6,49.61H425v25.62H391.19C323.05,836.46,290.34,820.11,290.34,764Z"/>
      </g>
      <g id="research">
        <g>
          <path class="cls-4" d="M789,828.76c0-7,5-11.91,11.36-11.91s11.35,4.9,11.35,11.91-5.05,11.92-11.35,11.92S789,835.91,789,828.76ZM789,879c0-7,5-11.92,11.36-11.92s11.35,4.91,11.35,11.92-5.05,11.91-11.35,11.91S789,886.1,789,879Z"/>
          <path class="cls-4" d="M856.29,797.22H885c18.64,0,32.24,6.73,32.24,25.93,0,18.37-13.6,27.2-32.24,27.2H868.21v38.83H856.29Zm27.06,43.6c14.29,0,22.14-5.89,22.14-17.67,0-12-7.85-16.4-22.14-16.4H868.21v34.07Zm8.55.14,28,48.22H906.62l-24-42Z"/>
          <path class="cls-4" d="M942.5,797.22h56.92v9.95H954.28v28.74h38.13v10H954.28v33.37h46.54v9.95H942.5Z"/>
          <path class="cls-4" d="M1020,877.26l7-8.13A38.65,38.65,0,0,0,1054,880.49c12.62,0,19.91-6,19.91-14.44,0-9.81-7.15-12.62-16.4-16.54l-13.32-5.89c-9.11-3.64-19.77-10.09-19.77-23.69,0-14,12.62-24.39,30.14-24.39a40.11,40.11,0,0,1,28.32,11.35l-6.17,7.57a32.31,32.31,0,0,0-22.57-8.55c-10.65,0-17.8,5.05-17.8,13.32,0,8.83,8.55,12,16.4,15.14l12.9,5.75c11.35,4.48,20.32,10.93,20.32,24.53,0,14.58-12.33,26.21-32.52,26.21A46.69,46.69,0,0,1,1020,877.26Z"/>
          <path class="cls-4" d="M1110.73,797.22h56.91v9.95H1122.5v28.74h38.13v10H1122.5v33.37H1169v9.95h-58.31Z"/>
          <path class="cls-4" d="M1214.18,797.22h13.46l31,92H1246l-15.84-51.31c-3.22-10.23-6.3-20.32-9.11-31h-.56c-2.94,10.66-5.89,20.75-9.11,31l-16.12,51.31H1183.2Zm-14.58,54.53h42.2v9.53h-42.2Z"/>
          <path class="cls-4" d="M1276.85,797.22h28.73c18.65,0,32.25,6.73,32.25,25.93,0,18.37-13.6,27.2-32.25,27.2h-16.82v38.83h-11.91Zm27.05,43.6c14.3,0,22.15-5.89,22.15-17.67,0-12-7.85-16.4-22.15-16.4h-15.14v34.07Zm8.55.14,28,48.22h-13.32l-24-42Z"/>
          <path class="cls-4" d="M1356.19,843.2c0-29.58,17.24-47.66,41.21-47.66a34.46,34.46,0,0,1,25.24,11.21l-6.73,7.43c-4.77-5-10.8-8.27-18.51-8.27-17.52,0-29,14.16-29,37,0,23.13,11.49,37.57,29,37.57,8.41,0,14.86-3.65,20.61-10.1l6.73,7.15c-7.15,8.42-16.26,13.32-28.46,13.32C1373.57,890.86,1356.19,873.2,1356.19,843.2Z"/>
          <path class="cls-4" d="M1442.26,797.22h11.92v38.41h38.13V797.22h11.92v92h-11.92V846h-38.13v43.18h-11.92Z"/>
          <path class="cls-4" d="M1542.78,911.75c11.91-5.33,17.8-12.9,17.66-24.53l-2.52-12.9,7.85,11.07a9.89,9.89,0,0,1-7.85,3.23c-6,0-10.94-3.51-10.94-10.51s5.19-10.66,11.22-10.66c8.27,0,12.61,6.87,12.61,17.94,0,16.41-9.25,27.9-24.67,33.65Zm3.22-83c0-7,5-11.91,11.36-11.91s11.35,4.9,11.35,11.91-5,11.92-11.35,11.92S1546,835.91,1546,828.76Z"/>
        </g>
      </g>
      <g id="interactive-data">
        <path class="cls-4" d="M946.81,384a52,52,0,0,1,.4-5.67L950.58,351H940.41l.74-6.52h14.52l-4.12,34.7a22.77,22.77,0,0,0-.22,3.26c0,5.36,1.71,7.57,4.23,7.57,1.71,0,3.31-1.06,5.31-2.63l1,6.09c-2.34,2-4.57,3.37-7.6,3.37C949.84,396.87,946.81,392.45,946.81,384Zm3.94-56c0-3.89,1.83-7.26,4-7.26s3.31,2.11,3.31,5.68c0,4.1-1.83,7.25-4,7.25C952.18,333.68,950.75,331.69,950.75,328Z"/>
        <path class="cls-4" d="M976.3,344.51H980l-.75,10.41h.23c3.37-6.1,7.49-11.67,12.46-11.67S999,348.3,999,356a82.74,82.74,0,0,1-.51,8.41l-3.43,31.23h-4.4L994,365.22a64,64,0,0,0,.52-7.15c0-5-1.54-7.78-4.4-7.78-3.72,0-7.54,4.53-11.32,12.31l-3.6,33h-4.4Z"/>
        <path class="cls-4" d="M1012.13,382.26a53.6,53.6,0,0,1,.46-6.63l2.74-24.6h-8.06l.63-6,8.34-.53,2.4-16.4h3.66l-1.83,16.4h13.66l-.74,6.52h-13.72l-2.8,24.81a36,36,0,0,0-.28,4.63c0,6.52,2,9.57,5.14,9.57,2.74,0,5.2-1.58,7.2-3.68l1.43,5.88a13.11,13.11,0,0,1-9.77,4.63C1014.76,396.87,1012.13,391,1012.13,382.26Z"/>
        <path class="cls-4" d="M1040.93,374.79c0-18.4,7.43-31.54,15.83-31.54,6.8,0,10.57,8.31,10.57,19.66a58.31,58.31,0,0,1-.74,9.15H1044.3l.57-6.31h19.83l-1.82,1.58a33.22,33.22,0,0,0,.34-4.73c0-8-2.57-12.94-6.69-12.94-5.37,0-11.26,9.89-11.26,24.71,0,10.3,3.32,16.09,8.35,16.09,3.65,0,6.91-2.84,9.48-6.63l1.66,5.47c-2.8,4.1-7.14,7.57-12,7.57C1045.56,396.87,1040.93,389.09,1040.93,374.79Z"/>
        <path class="cls-4" d="M1082.65,344.41l3.66.1-1.21,14.62h.23c3.15-8.73,7.6-15.88,12.46-15.88a6.8,6.8,0,0,1,5.6,2.63l-1.77,6.94a5.78,5.78,0,0,0-4.63-2.21c-4.28,0-8.74,7.46-12.51,18.5l-2.92,26.5h-4.4Z"/>
        <path class="cls-4" d="M1108.88,377.31c0-18.29,6.8-34.06,15.26-34.06,3.94,0,6.91,3.05,8.45,7.68h.23l1.14-6.42h3.6l-5.6,51.1h-3.6l.4-7.78h-.22c-2.92,5.46-6.58,9-10.18,9C1112.65,396.87,1108.88,390,1108.88,377.31Zm20.34,2.84,2.57-22.6c-1.88-5.36-4.51-7.47-7.08-7.47-6.35,0-11.32,12.31-11.32,26,0,9.57,2.52,14,6.35,14C1122.76,390,1126.19,386.67,1129.22,380.15Z"/>
        <path class="cls-4" d="M1144,374.37c0-18.61,8.06-31.12,16.75-31.12,4.85,0,8.45,4.31,10.45,9.15l-2.85,4.62c-2-4.62-4.57-6.94-8.17-6.94-5.72,0-11.72,10.31-11.72,23.34,0,11.15,3.77,16.62,8.92,16.62,3.25,0,6.28-2.84,8.85-7.05l1.77,5.57c-2.91,4.94-7,8.31-11.2,8.31C1149.57,396.87,1144,389.3,1144,374.37Z"/>
        <path class="cls-4" d="M1183.57,382.26a53.6,53.6,0,0,1,.46-6.63l2.74-24.6h-8.06l.63-6,8.34-.53,2.4-16.4h3.66l-1.83,16.4h13.66l-.74,6.52h-13.72l-2.8,24.81a36,36,0,0,0-.28,4.63c0,6.52,2,9.57,5.14,9.57,2.74,0,5.2-1.58,7.2-3.68l1.43,5.88a13.11,13.11,0,0,1-9.77,4.63C1186.2,396.87,1183.57,391,1183.57,382.26Z"/>
        <path class="cls-4" d="M1221.11,384a52,52,0,0,1,.4-5.67l3.37-27.34h-10.17l.75-6.52H1230l-4.11,34.7a21.49,21.49,0,0,0-.23,3.26c0,5.36,1.71,7.57,4.23,7.57,1.71,0,3.31-1.06,5.31-2.63l1,6.09c-2.34,2-4.57,3.37-7.6,3.37C1224.14,396.87,1221.11,392.45,1221.11,384Zm4-56c0-3.89,1.82-7.26,3.94-7.26s3.31,2.11,3.31,5.68c0,4.1-1.83,7.25-4,7.25C1226.48,333.68,1225.06,331.69,1225.06,328Z"/>
        <path class="cls-4" d="M1248,344.51h4.34l3.49,29.65c.57,5,1.08,10.2,1.6,15h.23c1.31-4.73,2.91-9.88,4.63-15.13l9.48-29.55h4.52l-16.8,51.1h-5.21Z"/>
        <path class="cls-4" d="M1281,374.79c0-18.4,7.42-31.54,15.82-31.54,6.8,0,10.58,8.31,10.58,19.66a58,58,0,0,1-.75,9.15h-22.28l.57-6.31h19.83l-1.83,1.58a31.82,31.82,0,0,0,.34-4.73c0-8-2.57-12.94-6.68-12.94-5.38,0-11.26,9.89-11.26,24.71,0,10.3,3.31,16.09,8.34,16.09,3.66,0,6.92-2.84,9.49-6.63l1.65,5.47c-2.8,4.1-7.14,7.57-12,7.57C1285.57,396.87,1281,389.09,1281,374.79Z"/>
        <path class="cls-4" d="M1356.78,316.76h4V421.89h-4Z"/>
        <path class="cls-4" d="M1404.61,377.31c0-18.29,6.8-34.06,15.26-34.06,3.94,0,6.74,2.94,8.34,7.47h.17l1-10,2.17-20h4.4l-8.22,74.86h-3.6l.4-7.78h-.23c-2.92,5.46-6.57,9-10.17,9C1408.38,396.87,1404.61,390,1404.61,377.31Zm20.34,2.84,2.57-22.6c-1.88-5.36-4.51-7.47-7.08-7.47-6.34,0-11.32,12.31-11.32,26,0,9.57,2.52,14,6.35,14C1418.5,390,1421.92,386.67,1425,380.15Z"/>
        <path class="cls-4" d="M1438.9,377.31c0-18.29,6.8-34.06,15.25-34.06,3.95,0,6.92,3.05,8.46,7.68h.23l1.14-6.42h3.6l-5.6,51.1h-3.6l.4-7.78h-.23c-2.91,5.46-6.57,9-10.17,9C1442.67,396.87,1438.9,390,1438.9,377.31Zm20.34,2.84,2.57-22.6c-1.88-5.36-4.51-7.47-7.08-7.47-6.35,0-11.32,12.31-11.32,26,0,9.57,2.52,14,6.34,14C1452.78,390,1456.21,386.67,1459.24,380.15Z"/>
        <path class="cls-4" d="M1479.3,382.26a53.6,53.6,0,0,1,.46-6.63l2.74-24.6h-8.06l.63-6,8.34-.53,2.4-16.4h3.66l-1.83,16.4h13.66l-.74,6.52h-13.72l-2.8,24.81a36,36,0,0,0-.28,4.63c0,6.52,2,9.57,5.14,9.57,2.74,0,5.2-1.58,7.2-3.68l1.43,5.88a13.11,13.11,0,0,1-9.77,4.63C1481.93,396.87,1479.3,391,1479.3,382.26Z"/>
        <path class="cls-4" d="M1507.47,377.31c0-18.29,6.8-34.06,15.26-34.06,3.94,0,6.91,3.05,8.46,7.68h.23l1.14-6.42h3.6l-5.6,51.1H1527l.4-7.78h-.23c-2.91,5.46-6.57,9-10.17,9C1511.24,396.87,1507.47,390,1507.47,377.31Zm20.35,2.84,2.57-22.6c-1.89-5.36-4.52-7.47-7.09-7.47-6.34,0-11.31,12.31-11.31,26,0,9.57,2.51,14,6.34,14C1521.36,390,1524.79,386.67,1527.82,380.15Z"/>
      </g>
    </g>
  </g>
</svg>
