<svg id="master-logo" xmlns="http://www.w3.org/2000/svg" viewBox="0 0 2000 1200">
  <defs>
    <style>
      .cls-1 {
        fill: #404040;
      }

      .cls-2 {
        fill: #b24745;
      }

      .cls-3 {
        fill: #2c689c;
        stroke: #000;
        stroke-miterlimit: 10;
        stroke-width: 2px;
      }

      .cls-4 {
        fill: #917543;
      }
    </style>
  </defs>
  <g id="context-dark">
    <g id="main-red">
      <g id="Layer_41_copy_2" data-name="Layer 41 copy 2">
        <rect class="cls-1" width="2000" height="1200"/>
      </g>
      <g id="clue-type-2" data-name="clue-type">
        <g>
          <path class="cls-2" d="M763.63,634.77V413H670.17V329.47H870.79v309c0,36.14,24.92,46.11,46.73,46.11,13.09,0,26.79-2.49,44.86-8.72l23,78.5c-33.64,10-56.07,16.2-96.57,16.2C806,770.6,763.63,715.77,763.63,634.77Z"/>
          <path class="cls-2" d="M991.66,643.5V451.59h107.16v178.2c0,34.89,7.48,49.84,35.52,49.84,18.07,0,30.53-5,46.73-27.41V451.59h107.16V763.13H1201L1193.53,722H1191c-26.17,29.91-57.33,48.6-100.94,48.6C1020.32,770.6,991.66,720.76,991.66,643.5Z"/>
          <path class="cls-2" d="M1308.79,607.36c0-102.18,79.75-163.24,163.24-163.24,98.44,0,148.29,67.29,148.29,150.78,0,18.69-3.12,37.38-4.36,44.86H1389.78V570h152l-15,18.69c0-41.13-16.2-63.55-51.09-63.55-41.13,0-63.56,26.16-63.56,82.24,0,58.57,28.66,82.24,86,82.24,24.92,0,47.35-6.23,74.76-18.69l34.9,63.55c-37.39,23.68-86,36.14-124.62,36.14C1384.8,770.6,1308.79,710.79,1308.79,607.36Z"/>
        </g>
        <path class="cls-2" d="M424.68,607.36c0-103.43,86-163.24,182.56-163.24,48.6,0,91.59,16.2,117.76,41.12l-48.6,66c-23-15.57-43-21.18-62.93-21.18-46.73,0-79.13,29.91-79.13,77.26s31.78,77.26,75.39,77.26c30.53,0,55.45-13.09,76.64-26.17l42.37,67.29c-38.63,31.78-88.48,44.86-129.6,44.86C500.7,770.6,424.68,710.79,424.68,607.36Z"/>
      </g>
      <g id="brackets-2" data-name="brackets">
        <path class="cls-3" d="M1619.16,814.27H1647c55.61,0,68.15-14.18,68.15-49.61,0-33.26-3.27-61.61-3.27-98.68,0-35.43,11.45-52.88,49.06-59.42v-2.18c-37.61-6.54-49.06-24-49.06-59.42,0-33.8,3.27-67.61,3.27-98.68,0-35.44-12.54-49.61-68.15-49.61h-27.8V371.05h33.25c68.69,0,100.31,16.35,100.31,72.5,0,37.62-4.9,70.88-4.9,105.22,0,21.26,14.72,42,79,42.52v28.35c-64.33.55-79,21.26-79,42.53,0,36.52,4.9,65.42,4.9,105.21,0,56.16-31.62,72.51-100.31,72.51h-33.25Z"/>
        <path class="cls-3" d="M302.33,767.38c0-39.8,5.45-68.69,5.45-105.21,0-21.27-14.72-42-79-42.53V591.29c64.33-.54,79-21.26,79-42.52,0-34.34-5.45-67.6-5.45-105.22,0-56.15,32.71-72.5,100.86-72.5H437v25.62H408.64c-55.61,0-67.6,14.17-67.6,49.61,0,31.07,3.27,64.87,3.27,98.68,0,35.43-12,52.88-49.61,59.42v2.18c37.62,6.54,49.61,24,49.61,59.42,0,37.07-3.27,65.42-3.27,98.68,0,35.43,12,49.61,67.6,49.61H437v25.62h-33.8C335,839.89,302.33,823.53,302.33,767.38Z"/>
      </g>
      <g id="research">
        <g>
          <path class="cls-4" d="M801,832.19c0-7,5-11.92,11.36-11.92s11.35,4.91,11.35,11.92-5,11.91-11.35,11.91S801,839.34,801,832.19Zm0,50.18c0-7,5-11.91,11.36-11.91s11.35,4.9,11.35,11.91-5,11.92-11.35,11.92S801,889.52,801,882.37Z"/>
          <path class="cls-4" d="M868.28,800.65H897c18.65,0,32.24,6.73,32.24,25.93,0,18.36-13.59,27.2-32.24,27.2H880.2v38.83H868.28Zm27.06,43.59c14.3,0,22.15-5.88,22.15-17.66,0-12.06-7.85-16.4-22.15-16.4H880.2v34.06Zm8.55.14,28,48.23H918.61l-24-42.06Z"/>
          <path class="cls-4" d="M954.5,800.65h56.91v10H966.27v28.74h38.13v9.95H966.27v33.36h46.54v10H954.5Z"/>
          <path class="cls-4" d="M1032,880.69l7-8.13a38.66,38.66,0,0,0,26.91,11.35c12.62,0,19.91-6,19.91-14.43,0-9.82-7.15-12.62-16.4-16.55l-13.32-5.88c-9.11-3.65-19.77-10.1-19.77-23.69,0-14,12.62-24.4,30.14-24.4a40.11,40.11,0,0,1,28.32,11.36l-6.17,7.57a32.27,32.27,0,0,0-22.57-8.55c-10.65,0-17.8,5-17.8,13.31,0,8.84,8.55,12.06,16.4,15.14l12.9,5.75c11.35,4.49,20.32,10.94,20.32,24.53,0,14.58-12.33,26.22-32.52,26.22A46.74,46.74,0,0,1,1032,880.69Z"/>
          <path class="cls-4" d="M1122.72,800.65h56.91v10h-45.14v28.74h38.13v9.95h-38.13v33.36H1181v10h-58.32Z"/>
          <path class="cls-4" d="M1226.18,800.65h13.45l31,92H1258l-15.84-51.31c-3.23-10.23-6.31-20.33-9.12-31h-.56c-2.94,10.65-5.88,20.75-9.11,31l-16.12,51.31h-12Zm-14.58,54.53h42.19v9.53H1211.6Z"/>
          <path class="cls-4" d="M1288.84,800.65h28.74c18.64,0,32.24,6.73,32.24,25.93,0,18.36-13.6,27.2-32.24,27.2h-16.83v38.83h-11.91Zm27.05,43.59c14.3,0,22.15-5.88,22.15-17.66,0-12.06-7.85-16.4-22.15-16.4h-15.14v34.06Zm8.55.14,28,48.23h-13.32l-24-42.06Z"/>
          <path class="cls-4" d="M1368.18,846.63c0-29.58,17.25-47.67,41.22-47.67a34.46,34.46,0,0,1,25.23,11.22l-6.73,7.43c-4.77-5.05-10.79-8.27-18.5-8.27-17.53,0-29,14.16-29,37,0,23.13,11.49,37.56,29,37.56,8.41,0,14.86-3.64,20.6-10.09l6.73,7.15c-7.15,8.41-16.26,13.32-28.45,13.32C1385.57,894.29,1368.18,876.63,1368.18,846.63Z"/>
          <path class="cls-4" d="M1454.26,800.65h11.91v38.41h38.13V800.65h11.92v92H1504.3V849.43h-38.13v43.18h-11.91Z"/>
          <path class="cls-4" d="M1554.77,915.17c11.91-5.32,17.8-12.89,17.66-24.53l-2.52-12.89,7.85,11.07a9.9,9.9,0,0,1-7.85,3.22c-6,0-10.94-3.5-10.94-10.51s5.19-10.65,11.22-10.65c8.27,0,12.62,6.87,12.62,17.94,0,16.4-9.26,27.9-24.68,33.64Zm3.22-83c0-7,5-11.92,11.36-11.92s11.35,4.91,11.35,11.92-5,11.91-11.35,11.91S1558,839.34,1558,832.19Z"/>
        </g>
      </g>
      <g id="interactive-data">
        <path class="cls-4" d="M958.8,387.47a54.61,54.61,0,0,1,.4-5.68l3.38-27.33H952.4l.75-6.52h14.51l-4.11,34.69a23.07,23.07,0,0,0-.23,3.26c0,5.36,1.71,7.57,4.23,7.57,1.71,0,3.31-1,5.31-2.63l1,6.1c-2.34,2-4.57,3.36-7.6,3.36C961.83,400.29,958.8,395.88,958.8,387.47Zm4-56c0-3.89,1.83-7.25,3.94-7.25s3.31,2.1,3.31,5.68c0,4.1-1.82,7.25-4,7.25C964.18,337.11,962.75,335.11,962.75,331.43Z"/>
        <path class="cls-4" d="M988.29,347.94H992l-.74,10.41h.22c3.38-6.1,7.49-11.67,12.46-11.67s7.15,5,7.15,12.72a80.11,80.11,0,0,1-.52,8.41L1007.09,399h-4.4l3.32-30.38a66.73,66.73,0,0,0,.51-7.15c0-5.05-1.54-7.78-4.4-7.78-3.71,0-7.54,4.52-11.31,12.3l-3.6,33h-4.4Z"/>
        <path class="cls-4" d="M1024.12,385.68a53.44,53.44,0,0,1,.46-6.62l2.74-24.6h-8.06l.63-6,8.35-.52,2.4-16.4h3.65l-1.82,16.4h13.65l-.74,6.52h-13.71l-2.8,24.81a36.13,36.13,0,0,0-.29,4.62c0,6.52,2,9.57,5.14,9.57,2.75,0,5.2-1.58,7.2-3.68l1.43,5.89a13.12,13.12,0,0,1-9.77,4.62C1026.75,400.29,1024.12,394.41,1024.12,385.68Z"/>
        <path class="cls-4" d="M1052.92,378.22c0-18.4,7.43-31.54,15.83-31.54,6.8,0,10.57,8.3,10.57,19.66a58.16,58.16,0,0,1-.74,9.14H1056.3l.57-6.3h19.83l-1.83,1.57a31.63,31.63,0,0,0,.34-4.73c0-8-2.57-12.93-6.69-12.93-5.37,0-11.25,9.88-11.25,24.71,0,10.3,3.31,16.08,8.34,16.08,3.66,0,6.91-2.84,9.49-6.62l1.65,5.47c-2.8,4.1-7.14,7.56-12,7.56C1057.55,400.29,1052.92,392.52,1052.92,378.22Z"/>
        <path class="cls-4" d="M1094.64,347.83l3.66.11-1.2,14.61h.23c3.14-8.72,7.6-15.87,12.45-15.87a6.77,6.77,0,0,1,5.6,2.63l-1.77,6.93A5.8,5.8,0,0,0,1109,354c-4.28,0-8.74,7.46-12.51,18.5L1093.55,399h-4.4Z"/>
        <path class="cls-4" d="M1120.87,380.74c0-18.29,6.8-34.06,15.26-34.06,3.94,0,6.91,3.05,8.46,7.67h.22l1.15-6.41h3.6L1144,399h-3.6l.4-7.78h-.23c-2.92,5.47-6.57,9-10.17,9C1124.64,400.29,1120.87,393.46,1120.87,380.74Zm20.34,2.84,2.58-22.6c-1.89-5.37-4.52-7.47-7.09-7.47-6.34,0-11.32,12.3-11.32,26,0,9.57,2.52,14,6.35,14C1134.76,393.46,1138.19,390.1,1141.21,383.58Z"/>
        <path class="cls-4" d="M1156,377.8c0-18.61,8-31.12,16.74-31.12,4.86,0,8.46,4.31,10.46,9.14l-2.86,4.63c-2-4.63-4.57-6.94-8.17-6.94-5.72,0-11.72,10.3-11.72,23.34,0,11.14,3.78,16.61,8.92,16.61,3.25,0,6.28-2.84,8.86-7L1180,392c-2.92,4.94-7,8.3-11.2,8.3C1161.56,400.29,1156,392.73,1156,377.8Z"/>
        <path class="cls-4" d="M1195.56,385.68a53.44,53.44,0,0,1,.46-6.62l2.74-24.6h-8.06l.63-6,8.34-.52,2.41-16.4h3.65l-1.83,16.4h13.66l-.74,6.52H1203.1l-2.8,24.81a37.82,37.82,0,0,0-.28,4.62c0,6.52,2,9.57,5.14,9.57,2.74,0,5.2-1.58,7.2-3.68l1.43,5.89a13.14,13.14,0,0,1-9.77,4.62C1198.19,400.29,1195.56,394.41,1195.56,385.68Z"/>
        <path class="cls-4" d="M1233.11,387.47a52,52,0,0,1,.4-5.68l3.37-27.33h-10.17l.74-6.52H1242l-4.11,34.69a23.07,23.07,0,0,0-.23,3.26c0,5.36,1.71,7.57,4.23,7.57,1.71,0,3.31-1,5.31-2.63l1,6.1c-2.34,2-4.57,3.36-7.6,3.36C1236.13,400.29,1233.11,395.88,1233.11,387.47Zm3.94-56c0-3.89,1.83-7.25,3.94-7.25s3.32,2.1,3.32,5.68c0,4.1-1.83,7.25-4,7.25C1238.48,337.11,1237.05,335.11,1237.05,331.43Z"/>
        <path class="cls-4" d="M1260,347.94h4.34l3.49,29.65c.57,5,1.09,10.19,1.6,15h.23c1.31-4.73,2.91-9.88,4.63-15.14l9.48-29.54h4.52L1271.51,399h-5.2Z"/>
        <path class="cls-4" d="M1292.94,378.22c0-18.4,7.43-31.54,15.83-31.54,6.8,0,10.57,8.3,10.57,19.66a59.42,59.42,0,0,1-.74,9.14h-22.29l.57-6.3h19.83l-1.83,1.57a31.63,31.63,0,0,0,.34-4.73c0-8-2.57-12.93-6.68-12.93-5.37,0-11.26,9.88-11.26,24.71,0,10.3,3.31,16.08,8.34,16.08,3.66,0,6.92-2.84,9.49-6.62l1.66,5.47c-2.8,4.1-7.15,7.56-12,7.56C1297.57,400.29,1292.94,392.52,1292.94,378.22Z"/>
        <path class="cls-4" d="M1368.77,320.18h4V425.32h-4Z"/>
        <path class="cls-4" d="M1416.6,380.74c0-18.29,6.8-34.06,15.26-34.06,3.94,0,6.74,2.94,8.34,7.46h.17l1-10,2.18-20h4.4L1439.69,399h-3.6l.4-7.78h-.23c-2.92,5.47-6.57,9-10.17,9C1420.37,400.29,1416.6,393.46,1416.6,380.74Zm20.35,2.84,2.57-22.6c-1.89-5.37-4.52-7.47-7.09-7.47-6.34,0-11.31,12.3-11.31,26,0,9.57,2.51,14,6.34,14C1430.49,393.46,1433.92,390.1,1437,383.58Z"/>
        <path class="cls-4" d="M1450.89,380.74c0-18.29,6.8-34.06,15.26-34.06,3.94,0,6.91,3.05,8.45,7.67h.23l1.15-6.41h3.6L1474,399h-3.6l.4-7.78h-.23c-2.92,5.47-6.57,9-10.17,9C1454.66,400.29,1450.89,393.46,1450.89,380.74Zm20.34,2.84,2.57-22.6c-1.88-5.37-4.51-7.47-7.08-7.47-6.34,0-11.32,12.3-11.32,26,0,9.57,2.52,14,6.35,14C1464.78,393.46,1468.2,390.1,1471.23,383.58Z"/>
        <path class="cls-4" d="M1491.29,385.68a53.44,53.44,0,0,1,.46-6.62l2.74-24.6h-8.06l.63-6,8.35-.52,2.4-16.4h3.65l-1.83,16.4h13.66l-.74,6.52h-13.72l-2.8,24.81a37.82,37.82,0,0,0-.28,4.62c0,6.52,2,9.57,5.14,9.57,2.74,0,5.2-1.58,7.2-3.68l1.43,5.89a13.14,13.14,0,0,1-9.77,4.62C1493.92,400.29,1491.29,394.41,1491.29,385.68Z"/>
        <path class="cls-4" d="M1519.46,380.74c0-18.29,6.8-34.06,15.26-34.06,4,0,6.92,3.05,8.46,7.67h.23l1.14-6.41h3.6l-5.6,51.09H1539l.4-7.78h-.23c-2.91,5.47-6.57,9-10.17,9C1523.24,400.29,1519.46,393.46,1519.46,380.74Zm20.35,2.84,2.57-22.6c-1.89-5.37-4.51-7.47-7.09-7.47-6.34,0-11.31,12.3-11.31,26,0,9.57,2.51,14,6.34,14C1533.35,393.46,1536.78,390.1,1539.81,383.58Z"/>
      </g>
    </g>
  </g>
</svg>
